  0
SECTION
  2
HEADER
  9
$ACADVER
  1
AC1014
  9
$HANDSEED
  5
FFFF
  9
$MEASUREMENT
 70
     1
  0
ENDSEC
  0
SECTION
  2
TABLES
  0
TABLE
  2
VPORT
  5
8
330
0
100
AcDbSymbolTable
 70
     4
  0
VPORT
  5
2E
330
8
100
AcDbSymbolTableRecord
100
AcDbViewportTableRecord
  2
*ACTIVE
 70
     0
 10
0.0
 20
0.0
 11
1.0
 21
1.0
 12
210.0
 22
148.5
 13
0.0
 23
0.0
 14
10.0
 24
10.0
 15
10.0
 25
10.0
 16
0.0
 26
0.0
 36
1.0
 17
0.0
 27
0.0
 37
0.0
 40
341.0
 41
1.24
 42
50.0
 43
0.0
 44
0.0
 50
0.0
 51
0.0
 71
     0
 72
   100
 73
     1
 74
     3
 75
     0
 76
     0
 77
     0
 78
     0
  0
ENDTAB
  0
TABLE
  2
LTYPE
  5
5
330
0
100
AcDbSymbolTable
 70
     1
  0
LTYPE
  5
14
330
5
100
AcDbSymbolTableRecord
100
AcDbLinetypeTableRecord
  2
BYBLOCK
 70
     0
  3

 72
    65
 73
     0
 40
0.0
  0
LTYPE
  5
15
330
5
100
AcDbSymbolTableRecord
100
AcDbLinetypeTableRecord
  2
BYLAYER
 70
     0
  3

 72
    65
 73
     0
 40
0.0
  0
LTYPE
  5
16
330
5
100
AcDbSymbolTableRecord
100
AcDbLinetypeTableRecord
  2
CONTINUOUS
 70
     0
  3
Solid line
 72
    65
 73
     0
 40
0.0
  0
ENDTAB
  0
TABLE
  2
LAYER
  5
2
100
AcDbSymbolTable
 70
2
  0
LAYER
  5
50
100
AcDbSymbolTableRecord
100
AcDbLayerTableRecord
  2
0
 70
0
  6
CONTINUOUS
  0
LAYER
  5
51
100
AcDbSymbolTableRecord
100
AcDbLayerTableRecord
  2
Ebene_1
 70
0
  6
CONTINUOUS
  0
ENDTAB
  0
TABLE
  2
STYLE
  5
3
330
0
100
AcDbSymbolTable
 70
     1
  0
STYLE
  5
11
330
3
100
AcDbSymbolTableRecord
100
AcDbTextStyleTableRecord
  2
STANDARD
 70
     0
 40
0.0
 41
1.0
 50
0.0
 71
     0
 42
2.5
  3
txt
  4

  0
ENDTAB
  0
TABLE
  2
VIEW
  5
6
330
0
100
AcDbSymbolTable
 70
     0
  0
ENDTAB
  0
TABLE
  2
UCS
  5
7
330
0
100
AcDbSymbolTable
 70
     0
  0
ENDTAB
  0
TABLE
  2
APPID
  5
9
330
0
100
AcDbSymbolTable
 70
     2
  0
APPID
  5
12
330
9
100
AcDbSymbolTableRecord
100
AcDbRegAppTableRecord
  2
ACAD
 70
     0
  0
ENDTAB
  0
TABLE
  2
DIMSTYLE
  5
A
330
0
100
AcDbSymbolTable
 70
     1
  0
DIMSTYLE
105
27
330
A
100
AcDbSymbolTableRecord
100
AcDbDimStyleTableRecord
  2
ISO-25
 70
     0
  3

  4

  5

  6

  7

 40
1.0
 41
2.5
 42
0.625
 43
3.75
 44
1.25
 45
0.0
 46
0.0
 47
0.0
 48
0.0
140
2.5
141
2.5
142
0.0
143
0.03937007874016
144
1.0
145
0.0
146
1.0
147
0.625
 71
     0
 72
     0
 73
     0
 74
     0
 75
     0
 76
     0
 77
     1
 78
     8
170
     0
171
     3
172
     1
173
     0
174
     0
175
     0
176
     0
177
     0
178
     0
270
     2
271
     2
272
     2
273
     2
274
     3
340
11
275
     0
280
     0
281
     0
282
     0
283
     0
284
     8
285
     0
286
     0
287
     3
288
     0
  0
ENDTAB
  0
TABLE
  2
BLOCK_RECORD
  5
1
330
0
100
AcDbSymbolTable
 70
     1
  0
BLOCK_RECORD
  5
1F
330
1
100
AcDbSymbolTableRecord
100
AcDbBlockTableRecord
  2
*MODEL_SPACE
  0
BLOCK_RECORD
  5
1B
330
1
100
AcDbSymbolTableRecord
100
AcDbBlockTableRecord
  2
*PAPER_SPACE
  0
ENDTAB
  0
ENDSEC
  0
SECTION
  2
BLOCKS
  0
BLOCK
  5
20
330
1F
100
AcDbEntity
  8
0
100
AcDbBlockBegin
  2
*MODEL_SPACE
 70
     0
 10
0.0
 20
0.0
 30
0.0
  3
*MODEL_SPACE
  1

  0
ENDBLK
  5
21
330
1F
100
AcDbEntity
  8
0
100
AcDbBlockEnd
  0
BLOCK
  5
1C
330
1B
100
AcDbEntity
 67
     1
  8
0
100
AcDbBlockBegin
  2
*PAPER_SPACE
  1

  0
ENDBLK
  5
1D
330
1B
100
AcDbEntity
 67
     1
  8
0
100
AcDbBlockEnd
  0
ENDSEC
  0
SECTION
  2
ENTITIES
  0
LWPOLYLINE
  5
100
100
AcDbEntity
  8
Ebene_1
 62
7
100
AcDbPolyline
 90
134
 70
0
 10
121.421561
 20
11.384254
 30
0.0
 10
116.145725
 20
11.310538
 30
0.0
 10
110.558941
 20
11.372287
 30
0.0
 10
103.902255
 20
11.636569
 30
0.0
 10
96.847674
 20
12.205982
 30
0.0
 10
90.067206
 20
13.183120
 30
0.0
 10
86.989766
 20
13.856649
 30
0.0
 10
84.232857
 20
14.670582
 30
0.0
 10
81.880479
 20
15.637745
 30
0.0
 10
80.016635
 20
16.770963
 30
0.0
 10
77.873963
 20
14.653274
 30
0.0
 10
76.062025
 20
13.170029
 30
0.0
 10
74.469944
 20
12.389601
 30
0.0
 10
72.986840
 20
12.380366
 30
0.0
 10
72.255160
 20
13.802738
 30
0.0
 10
71.344346
 20
15.283024
 30
0.0
 10
70.812673
 20
15.648310
 30
0.0
 10
70.225307
 20
15.552187
 30
0.0
 10
69.578611
 20
14.836025
 30
0.0
 10
68.868950
 20
13.341195
 30
0.0
 10
67.980611
 20
13.401592
 30
0.0
 10
66.976048
 20
13.785601
 30
0.0
 10
64.531153
 20
14.891698
 30
0.0
 10
63.047274
 20
15.297410
 30
0.0
 10
61.360077
 20
15.393980
 30
0.0
 10
59.447788
 20
15.023219
 30
0.0
 10
57.288633
 20
14.026939
 30
0.0
 10
56.282055
 20
14.903762
 30
0.0
 10
55.203107
 20
16.419679
 30
0.0
 10
52.424935
 20
15.223089
 30
0.0
 10
50.183064
 20
14.646382
 30
0.0
 10
48.140027
 20
14.454462
 30
0.0
 10
47.790182
 20
15.505404
 30
0.0
 10
47.334767
 20
16.471047
 30
0.0
 10
46.676262
 20
17.420777
 30
0.0
 10
45.802594
 20
18.122571
 30
0.0
 10
44.701691
 20
18.344407
 30
0.0
 10
43.361482
 20
17.854263
 30
0.0
 10
41.769893
 20
16.420116
 30
0.0
 10
40.851742
 20
17.233608
 30
0.0
 10
39.318668
 20
18.290044
 30
0.0
 10
37.298421
 20
19.285514
 30
0.0
 10
34.918751
 20
19.916106
 30
0.0
 10
33.634055
 20
19.999601
 30
0.0
 10
32.307409
 20
19.877910
 30
0.0
 10
30.954783
 20
19.513044
 30
0.0
 10
29.592145
 20
18.867015
 30
0.0
 10
28.235464
 20
17.901832
 30
0.0
 10
26.900709
 20
16.579508
 30
0.0
 10
25.603848
 20
14.862053
 30
0.0
 10
24.360851
 20
12.711479
 30
0.0
 10
24.388517
 20
12.894258
 30
0.0
 10
23.476716
 20
13.342645
 30
0.0
 10
20.133252
 20
13.906721
 30
0.0
 10
12.865927
 20
14.436562
 30
0.0
 10
11.682975
 20
15.657452
 30
0.0
 10
10.286589
 20
16.559061
 30
0.0
 10
8.744447
 20
17.119199
 30
0.0
 10
7.124225
 20
17.315676
 30
0.0
 10
5.686828
 20
17.168159
 30
0.0
 10
4.348241
 20
16.749849
 30
0.0
 10
3.137183
 20
16.089565
 30
0.0
 10
2.082373
 20
15.216123
 30
0.0
 10
1.212532
 20
14.158343
 30
0.0
 10
0.556379
 20
12.945041
 30
0.0
 10
0.142632
 20
11.605036
 30
0.0
 10
0.000011
 20
10.167144
 30
0.0
 10
0.147540
 20
8.729746
 30
0.0
 10
0.565855
 20
7.391158
 30
0.0
 10
1.226140
 20
6.180099
 30
0.0
 10
2.099579
 20
5.125289
 30
0.0
 10
3.157354
 20
4.255447
 30
0.0
 10
4.370651
 20
3.599293
 30
0.0
 10
5.710652
 20
3.185547
 30
0.0
 10
7.148541
 20
3.042929
 30
0.0
 10
8.746330
 20
3.242913
 30
0.0
 10
10.230597
 20
3.769335
 30
0.0
 10
11.553097
 20
4.589280
 30
0.0
 10
12.665585
 20
5.669829
 30
0.0
 10
20.345212
 20
6.399308
 30
0.0
 10
23.718568
 20
6.890408
 30
0.0
 10
24.491574
 20
7.167324
 30
0.0
 10
24.370149
 20
7.254253
 30
0.0
 10
25.620466
 20
5.107994
 30
0.0
 10
26.923170
 20
3.395154
 30
0.0
 10
28.262422
 20
2.077675
 30
0.0
 10
29.622383
 20
1.117494
 30
0.0
 10
30.987214
 20
0.476553
 30
0.0
 10
32.341074
 20
0.116791
 30
0.0
 10
33.668126
 20
0.000148
 30
0.0
 10
34.952530
 20
0.088563
 30
0.0
 10
37.330036
 20
0.728331
 30
0.0
 10
39.346878
 20
1.731612
 30
0.0
 10
40.876343
 20
2.793925
 30
0.0
 10
41.791717
 20
3.610790
 30
0.0
 10
43.388183
 20
2.182076
 30
0.0
 10
44.730054
 20
1.696502
 30
0.0
 10
45.830194
 20
1.922087
 30
0.0
 10
46.701466
 20
2.626853
 30
0.0
 10
47.356731
 20
3.578820
 30
0.0
 10
47.808852
 20
4.546010
 30
0.0
 10
48.155115
 20
5.598136
 30
0.0
 10
50.198794
 20
5.413177
 30
0.0
 10
52.442617
 20
4.844113
 30
0.0
 10
55.224852
 20
3.656995
 30
0.0
 10
56.298625
 20
5.176583
 30
0.0
 10
57.302210
 20
6.056828
 30
0.0
 10
59.464747
 20
5.067912
 30
0.0
 10
61.378289
 20
4.703670
 30
0.0
 10
63.065147
 20
4.805988
 30
0.0
 10
64.547635
 20
5.216754
 30
0.0
 10
66.988748
 20
6.331174
 30
0.0
 10
67.991998
 20
6.718602
 30
0.0
 10
68.880126
 20
6.782025
 30
0.0
 10
69.594875
 20
5.289623
 30
0.0
 10
70.244006
 20
4.575669
 30
0.0
 10
70.831696
 20
4.481548
 30
0.0
 10
71.362120
 20
4.848644
 30
0.0
 10
72.267884
 20
6.332023
 30
0.0
 10
72.994711
 20
7.756879
 30
0.0
 10
74.477840
 20
7.752699
 30
0.0
 10
76.072571
 20
6.977701
 30
0.0
 10
77.889549
 20
5.500639
 30
0.0
 10
80.039421
 20
3.390266
 30
0.0
 10
81.899395
 20
4.529827
 30
0.0
 10
84.248463
 20
5.505000
 30
0.0
 10
87.002583
 20
6.328321
 30
0.0
 10
90.077710
 20
7.012331
 30
0.0
 10
96.854810
 20
8.012565
 30
0.0
 10
103.907409
 20
8.606010
 30
0.0
 10
110.563155
 20
8.892971
 30
0.0
 10
116.149696
 20
8.973754
 30
0.0
 10
121.425752
 20
8.918013
 30
0.0
 10
121.421561
 20
11.384254
 30
0.0
  0
LWPOLYLINE
  5
101
100
AcDbEntity
  8
Ebene_1
 62
7
100
AcDbPolyline
 90
28
 70
0
 10
68.331940
 20
10.279324
 30
0.0
 10
68.332036
 20
10.221015
 30
0.0
 10
67.959615
 20
9.387497
 30
0.0
 10
66.966384
 20
8.594132
 30
0.0
 10
65.542801
 20
7.882985
 30
0.0
 10
63.879326
 20
7.296120
 30
0.0
 10
60.594541
 20
6.663493
 30
0.0
 10
59.354150
 20
6.701860
 30
0.0
 10
58.635705
 20
7.032765
 30
0.0
 10
58.419645
 20
7.496758
 30
0.0
 10
58.547561
 20
7.863561
 30
0.0
 10
59.443714
 20
8.448360
 30
0.0
 10
60.540950
 20
9.072682
 30
0.0
 10
60.920218
 20
9.488889
 30
0.0
 10
61.056051
 20
10.022046
 30
0.0
 10
60.891652
 20
10.535613
 30
0.0
 10
60.498475
 20
10.904167
 30
0.0
 10
59.403678
 20
11.415726
 30
0.0
 10
58.527437
 20
11.975699
 30
0.0
 10
58.407456
 20
12.404772
 30
0.0
 10
58.625531
 20
13.003064
 30
0.0
 10
59.328120
 20
13.446680
 30
0.0
 10
60.545514
 20
13.536733
 30
0.0
 10
63.786942
 20
12.915228
 30
0.0
 10
66.874267
 20
11.656706
 30
0.0
 10
67.899032
 20
10.950486
 30
0.0
 10
68.331940
 20
10.279318
 30
0.0
 10
68.331940
 20
10.279324
 30
0.0
  0
LWPOLYLINE
  5
102
100
AcDbEntity
  8
Ebene_1
 62
7
100
AcDbPolyline
 90
5
 70
0
 10
46.573417
 20
9.997379
 30
0.0
 10
42.287350
 20
7.004920
 30
0.0
 10
38.364256
 20
9.983393
 30
0.0
 10
42.277179
 20
12.975217
 30
0.0
 10
46.573417
 20
9.997379
 30
0.0
  0
LWPOLYLINE
  5
103
100
AcDbEntity
  8
Ebene_1
 62
7
100
AcDbPolyline
 90
60
 70
0
 10
39.304623
 20
5.577224
 30
0.0
 10
39.304710
 20
5.524746
 30
0.0
 10
39.304863
 20
5.437291
 30
0.0
 10
39.153190
 20
4.488956
 30
0.0
 10
38.673228
 20
3.707739
 30
0.0
 10
37.879606
 20
3.156927
 30
0.0
 10
36.786953
 20
2.899805
 30
0.0
 10
35.409898
 20
2.999662
 30
0.0
 10
33.763071
 20
3.519782
 30
0.0
 10
31.861101
 20
4.523454
 30
0.0
 10
29.718618
 20
6.073963
 30
0.0
 10
29.362919
 20
6.102511
 30
0.0
 10
29.357091
 20
6.108336
 30
0.0
 10
29.441981
 20
6.628783
 30
0.0
 10
29.892975
 20
7.442911
 30
0.0
 10
30.305181
 20
8.262095
 30
0.0
 10
30.273709
 20
8.797710
 30
0.0
 10
29.453954
 20
9.110741
 30
0.0
 10
28.835533
 20
8.723512
 30
0.0
 10
28.237000
 20
8.111281
 30
0.0
 10
27.476910
 20
7.749302
 30
0.0
 10
26.565346
 20
8.937150
 30
0.0
 10
25.234234
 20
9.984350
 30
0.0
 10
26.468723
 20
10.895995
 30
0.0
 10
27.282711
 20
12.226709
 30
0.0
 10
27.778373
 20
12.179817
 30
0.0
 10
28.169398
 20
11.951276
 30
0.0
 10
28.776913
 20
11.273072
 30
0.0
 10
29.384012
 20
10.839743
 30
0.0
 10
29.774515
 20
10.917296
 30
0.0
 10
30.269448
 20
11.298935
 30
0.0
 10
30.301392
 20
11.838975
 30
0.0
 10
29.893292
 20
12.672903
 30
0.0
 10
29.438881
 20
13.508892
 30
0.0
 10
29.331891
 20
14.055115
 30
0.0
 10
29.337719
 20
14.060942
 30
0.0
 10
29.378487
 20
14.095997
 30
0.0
 10
29.401810
 20
14.107706
 30
0.0
 10
29.425133
 20
14.113534
 30
0.0
 10
29.705020
 20
14.096511
 30
0.0
 10
31.198795
 20
15.239783
 30
0.0
 10
32.598274
 20
16.066244
 30
0.0
 10
33.891659
 20
16.603806
 30
0.0
 10
35.067149
 20
16.880381
 30
0.0
 10
36.112946
 20
16.923881
 30
0.0
 10
37.017251
 20
16.762216
 30
0.0
 10
37.768263
 20
16.423298
 30
0.0
 10
38.354183
 20
15.935040
 30
0.0
 10
38.983551
 20
14.622148
 30
0.0
 10
39.003399
 20
13.853337
 30
0.0
 10
38.810958
 20
13.046832
 30
0.0
 10
38.394429
 20
12.230545
 30
0.0
 10
37.742010
 20
11.432386
 30
0.0
 10
36.841905
 20
10.680268
 30
0.0
 10
35.682312
 20
10.002102
 30
0.0
 10
37.239352
 20
9.002595
 30
0.0
 10
38.351421
 20
7.880718
 30
0.0
 10
39.034530
 20
6.713302
 30
0.0
 10
39.304691
 20
5.577179
 30
0.0
 10
39.304623
 20
5.577224
 30
0.0
  0
ENDSEC
  0
SECTION
  2
OBJECTS
  0
DICTIONARY
  5
C
330
0
100
AcDbDictionary
  3
ACAD_GROUP
350
D
  3
ACAD_MLINESTYLE
350
17
  0
DICTIONARY
  5
D
330
C
100
AcDbDictionary
  0
DICTIONARY
  5
1A
330
C
100
AcDbDictionary
  0
DICTIONARY
  5
17
330
C
100
AcDbDictionary
  3
STANDARD
350
18
  0
DICTIONARY
  5
19
330
C
100
AcDbDictionary
  0
ENDSEC
  0
EOF
