<?xml version="1.0" encoding="UTF-8" standalone="no"?>
<!-- Created with Inkscape (http://www.inkscape.org/) -->

<svg
   xmlns:dc="http://purl.org/dc/elements/1.1/"
   xmlns:cc="http://creativecommons.org/ns#"
   xmlns:rdf="http://www.w3.org/1999/02/22-rdf-syntax-ns#"
   xmlns:svg="http://www.w3.org/2000/svg"
   xmlns="http://www.w3.org/2000/svg"
   xmlns:sodipodi="http://sodipodi.sourceforge.net/DTD/sodipodi-0.dtd"
   xmlns:inkscape="http://www.inkscape.org/namespaces/inkscape"
   width="430.24872"
   height="70.866142"
   id="svg2"
   sodipodi:version="0.32"
   inkscape:version="0.91 r13725"
   version="1.0"
   sodipodi:docname="antique hand lines shorter.svg">
  <sodipodi:namedview
     id="base"
     pagecolor="#ffffff"
     bordercolor="#666666"
     borderopacity="1.0"
     inkscape:pageopacity="0.0"
     inkscape:pageshadow="2"
     inkscape:zoom="2.8284271"
     inkscape:cx="131.37521"
     inkscape:cy="4.4328033"
     inkscape:document-units="px"
     inkscape:current-layer="g4169"
     showguides="false"
     inkscape:guide-bbox="true"
     inkscape:window-width="1855"
     inkscape:window-height="1056"
     inkscape:window-x="1985"
     inkscape:window-y="24"
     showgrid="false"
     fit-margin-top="0"
     fit-margin-left="0"
     fit-margin-right="0"
     fit-margin-bottom="0"
     inkscape:window-maximized="1">
    <sodipodi:guide
       id="guide1307"
       position="4.5148085,-48.8859"
       orientation="horizontal" />
    <sodipodi:guide
       id="guide1309"
       position="54.514808,-98.8859"
       orientation="vertical" />
    <sodipodi:guide
       id="guide1311"
       position="4.5148085,1.1140999"
       orientation="horizontal" />
    <sodipodi:guide
       id="guide1313"
       position="4.5148085,-98.8859"
       orientation="vertical" />
    <sodipodi:guide
       id="guide1315"
       position="104.51481,-98.8859"
       orientation="vertical" />
    <sodipodi:guide
       id="guide1317"
       position="4.5148085,-98.8859"
       orientation="horizontal" />
    <sodipodi:guide
       id="guide1319"
       position="4.5148085,-8.8256591"
       orientation="horizontal" />
    <sodipodi:guide
       id="guide1321"
       position="14.554969,-98.8859"
       orientation="vertical" />
    <sodipodi:guide
       id="guide1323"
       position="94.575049,-98.8859"
       orientation="vertical" />
    <sodipodi:guide
       id="guide1325"
       position="4.5148085,-88.845739"
       orientation="horizontal" />
    <sodipodi:guide
       id="guide4953"
       position="-5.5253525,-98.8859"
       orientation="vertical" />
    <sodipodi:guide
       id="guide4955"
       position="44.575049,-98.8859"
       orientation="vertical" />
    <sodipodi:guide
       id="guide4957"
       position="34.534888,-98.8859"
       orientation="vertical" />
  </sodipodi:namedview>
  <defs
     id="defs4">
    <linearGradient
       id="linearGradient2202">
      <stop
         id="stop2204"
         offset="0"
         style="stop-color:#a5adad;stop-opacity:1;" />
      <stop
         id="stop2206"
         offset="1"
         style="stop-color:#e8f4ed;stop-opacity:1;" />
    </linearGradient>
  </defs>
  <metadata
     id="metadata7">
    <rdf:RDF>
      <cc:Work
         rdf:about="">
        <dc:format>image/svg+xml</dc:format>
        <dc:type
           rdf:resource="http://purl.org/dc/dcmitype/StillImage" />
        <dc:title></dc:title>
      </cc:Work>
    </rdf:RDF>
  </metadata>
  <g
     inkscape:groupmode="layer"
     id="layer2"
     inkscape:label="body"
     style="display:inline">
    <g
       id="g4169">
      <path
         id="path4186"
         style="display:inline;fill:#000000;fill-opacity:1;stroke:none;stroke-opacity:1"
         d="m 84.812622,45.608899 3.72246,4.391214 3.87839,5.099513 3.98835,3.922702 4.049078,2.859141 4.06386,1.908829 4.03102,1.071768 3.95225,0.346314 3.82423,-0.262608 7.07891,-1.905547 6.00551,-2.987162 4.5546,-3.162781 2.72456,-2.432403 4.75484,4.254244 3.99492,1.445983 3.27602,-0.672932 2.5949,-2.097579 1.94986,-2.834521 1.3475,-2.880479 1.03075,-3.133237 6.08428,0.551476 6.68173,1.69382 8.28363,3.535355 3.19725,-4.525058 2.9888,-2.621153 6.43881,2.944488 5.69859,1.084899 5.02237,-0.30364 4.41509,-1.224409 7.26767,-3.317063 2.98717,-1.153832 2.64412,-0.188749 2.12876,4.442993 1.93345,2.125481 1.74963,0.280662 1.57893,-1.093105 2.69665,-4.416732 2.16487,-4.242756 4.41674,0.01313 4.74827,2.307665 5.40972,4.397038 6.40106,6.28453 5.53938,-3.392564 6.99357,-2.905097 8.20156,-2.450458 9.15681,-2.036851 20.17812,-2.978955 21.0004,-1.766037 19.81868,-0.855116 16.63455,-0.23963 15.70887,0.165772 -0.0115,-7.344809 -15.71051,0.219934 -16.63455,-0.183826 -19.82032,-0.786181 -21.00697,-1.69546 -20.18796,-2.910022 -9.16337,-2.005666 -8.20977,-2.424198 -7.00507,-2.878836 -5.54922,-3.374509 -6.37973,6.305867 -5.39494,4.416733 -4.74171,2.324078 -4.4151,0.02626 -2.17964,-4.234549 -2.71142,-4.408526 -1.58385,-1.086539 -1.74799,0.285586 -1.92524,2.132045 -2.11399,4.4512 -2.64414,-0.178901 -2.99208,-1.143985 -7.27915,-3.294085 -4.41838,-1.207995 -5.02401,-0.287228 -5.69366,1.104595 -6.42897,2.965824 -2.99865,-2.611304 -3.21202,-4.51357 -8.27215,3.563258 -6.67515,1.716798 -6.08429,0.572813 -1.04058,-3.129956 -1.35736,-2.875554 -1.95971,-2.827956 -2.60146,-2.089372 -3.27767,-0.659802 -3.99163,1.459114 -4.73843,4.270657 -2.73441,-2.422555 -4.56444,-3.146369 -6.01536,-2.9641838 -7.08548,-1.8776448 -3.82587,-0.247836 5e-5,1e-6 -3.9506,0.3610855 -4.02775,1.0865393 -4.05729,1.9236012 -4.039228,2.8739126 -3.97359,3.937474 -3.86197,5.114284 -3.61906,3.859434 -1.681275,-1.225294 -11.847656,-2 -25.75,-1.876953 -4.191407,-4.326172 -4.947265,-3.195313 -5.464844,-1.984375 -5.740234,-0.6953122 -5.09375,0.5214842 -4.744141,1.482422 -4.291016,2.339844 -3.7363278,3.095703 -3.0820312,3.748047 -2.3261719,4.298828 -1.46484372,4.748047 -0.50585938,5.095703 0.5234375,5.091797 1.4824219,4.74414 2.3378906,4.291016 3.0957031,3.736328 3.7480469,3.082031 4.298828,2.326172 4.748047,1.464844 5.095703,0.505859 5.660156,-0.708984 5.259766,-1.865234 4.685547,-2.904297 3.943359,-3.830078 27.210938,-2.583985 10.828125,-1.740234 z m 34.964598,-30.791649 2.69337,0.4809 2.23545,1.009398 1.7447,1.454191 1.87437,3.90793 0.0591,2.289611 -0.57281,2.401219 -1.24082,2.430762 -1.94166,2.376599 -2.68024,2.240372 -3.45329,2.018796 4.63667,2.975674 3.31049,3.340041 2.03358,3.476269 0.80587,3.54028 -0.45136,3.083999 -1.42956,2.325719 -2.36347,1.639657 -3.25305,0.766486 -4.09997,-0.297075 -4.9042,-1.549386 -5.66248,-2.988803 -6.37972,-4.616971 -1.076698,-0.101761 0.25277,-1.549385 1.342578,-2.424197 1.22769,-2.438969 -0.0935,-1.595342 -2.440618,-0.932257 -1.84153,1.153833 -1.78245,1.821841 -2.26335,1.078332 -2.71471,-3.536997 -3.96373,-3.118466 3.67651,-2.714707 2.42419,-3.962093 1.47553,0.13951 1.16368,0.681139 1.80871,2.018796 1.80871,1.29006 1.162038,-0.229781 1.47389,-1.13742 0.0952,-1.60683 -1.21455,-2.483284 -1.354078,-2.489849 -0.31841,-1.626526 0.13951,-0.121456 0.13787,-0.05252 0.833778,0.05088 4.44792,-3.404051 4.16725,-2.460306 3.85048,-1.601907 3.5009,-0.82229 3.11353,-0.129663 z m 72.75054,10.084135 9.65247,1.851384 9.19291,3.747083 3.05117,2.102503 1.28842,1.9991 0,0.173979 -1.10788,2.481642 -2.95761,2.361827 -4.23948,2.117275 -4.95343,1.747982 -9.78049,1.88421 -3.69292,-0.11489 -2.14026,-0.984779 -0.64339,-1.381974 0.38078,-1.091463 2.66875,-1.741416 3.26782,-1.859591 1.12923,-1.23918 0.40375,-1.587135 -0.48911,-1.52969 -1.17025,-1.098028 -3.25961,-1.523124 -2.60966,-1.667559 -0.35781,-1.276931 0.64996,-1.780807 2.09101,-1.321246 z m -54.3959,1.672482 12.79228,8.866292 -12.76109,8.910607 -11.68276,-8.867933 z"
         inkscape:connector-curvature="0"
         sodipodi:nodetypes="cccccccccccccccccccccccccccccccccccccccccccccccccccccccccccccccccccccccccccccccccccccccccccccccccccccccccccccccccccccccccccccccccccccccccccccccccccccccccccccccccccccccccccccccccccccccccccccccccccccccccccccccccccccccccccc" />
    </g>
  </g>
  <g
     style="display:none"
     inkscape:groupmode="layer"
     id="layer5"
     inkscape:label="base">
    <path
       style="display:inline;fill:#000000;fill-opacity:1;stroke:none;stroke-opacity:1"
       d="m 25.244141,9.5097656 -5.09375,0.5234374 -4.744141,1.482422 -4.291016,2.337891 -3.7363278,3.095703 -3.0820312,3.748047 -2.3261719,4.298828 -1.46484372,4.748047 -0.50585938,5.095703 0.5234375,5.091797 1.4824219,4.74414 2.3378906,4.291016 3.0957031,3.738281 3.7480469,3.082031 4.298828,2.324219 4.748047,1.466797 5.095703,0.503906 5.660156,-0.707031 5.259766,-1.865234 4.685547,-2.90625 3.943359,-3.828125 27.210938,-2.585938 11.953125,-1.740234 2.21875,-0.794922 0.962239,-4.96842 0.04699,-10.329029 -0.788524,-4.817786 -0.427734,-0.541015 -2.869141,-1.410156 -11.847656,-1.998047 -25.75,-1.878906 -4.191407,-4.326172 -4.947265,-3.19336 -5.464844,-1.984375 z"
       id="path4164-2"
       inkscape:connector-curvature="0"
       sodipodi:nodetypes="ccccccccccccccccccccccccccccccccccc" />
  </g>
  <g
     inkscape:label="arm"
     id="layer6"
     inkscape:groupmode="layer"
     style="display:none">
    <path
       sodipodi:nodetypes="ccccccc"
       inkscape:connector-curvature="0"
       id="path4150-9"
       d="m 72.7246,41.706058 2.689861,-0.542847 2.196576,-1.480884 1.480908,-2.196559 0.542855,-2.68987 -0.542855,-2.68987 -1.480908,-2.196559 -2.196576,-1.480884 -2.689861,-0.542847 -47.4806,-3.54297 -4.068878,0.821362 -3.322647,2.240182 -2.240134,3.322692 -0.821341,4.068894 0.821356,4.068894 2.240169,3.322692 3.322681,2.240182 4.068894,0.821362 47.4805,-3.54297"
       style="fill:#000000;fill-opacity:1" />
  </g>
</svg>
