<?xml version="1.0" encoding="UTF-8" standalone="no"?>
<!-- Created with Inkscape (http://www.inkscape.org/) -->

<svg
   xmlns:dc="http://purl.org/dc/elements/1.1/"
   xmlns:cc="http://creativecommons.org/ns#"
   xmlns:rdf="http://www.w3.org/1999/02/22-rdf-syntax-ns#"
   xmlns:svg="http://www.w3.org/2000/svg"
   xmlns="http://www.w3.org/2000/svg"
   xmlns:sodipodi="http://sodipodi.sourceforge.net/DTD/sodipodi-0.dtd"
   xmlns:inkscape="http://www.inkscape.org/namespaces/inkscape"
   width="430.24872"
   height="70.866142"
   id="svg2"
   sodipodi:version="0.32"
   inkscape:version="0.91 r13725"
   version="1.0"
   sodipodi:docname="antique hand no arm.svg">
  <defs
     id="defs4">
    <linearGradient
       id="linearGradient2202">
      <stop
         style="stop-color:#a5adad;stop-opacity:1;"
         offset="0"
         id="stop2204" />
      <stop
         style="stop-color:#e8f4ed;stop-opacity:1;"
         offset="1"
         id="stop2206" />
    </linearGradient>
  </defs>
  <sodipodi:namedview
     id="base"
     pagecolor="#ffffff"
     bordercolor="#666666"
     borderopacity="1.0"
     inkscape:pageopacity="0.0"
     inkscape:pageshadow="2"
     inkscape:zoom="2.4684868"
     inkscape:cx="139.81952"
     inkscape:cy="25.961283"
     inkscape:document-units="px"
     inkscape:current-layer="layer1"
     showguides="false"
     inkscape:guide-bbox="true"
     inkscape:window-width="1855"
     inkscape:window-height="1056"
     inkscape:window-x="1985"
     inkscape:window-y="24"
     showgrid="false"
     fit-margin-top="0"
     fit-margin-left="0"
     fit-margin-right="0"
     fit-margin-bottom="0"
     inkscape:window-maximized="1">
    <sodipodi:guide
       orientation="horizontal"
       position="4.5148085,-48.8859"
       id="guide1307" />
    <sodipodi:guide
       orientation="vertical"
       position="54.514808,-98.8859"
       id="guide1309" />
    <sodipodi:guide
       orientation="horizontal"
       position="4.5148085,1.1140999"
       id="guide1311" />
    <sodipodi:guide
       orientation="vertical"
       position="4.5148085,-98.8859"
       id="guide1313" />
    <sodipodi:guide
       orientation="vertical"
       position="104.51481,-98.8859"
       id="guide1315" />
    <sodipodi:guide
       orientation="horizontal"
       position="4.5148085,-98.8859"
       id="guide1317" />
    <sodipodi:guide
       orientation="horizontal"
       position="4.5148085,-8.8256591"
       id="guide1319" />
    <sodipodi:guide
       orientation="vertical"
       position="14.554969,-98.8859"
       id="guide1321" />
    <sodipodi:guide
       orientation="vertical"
       position="94.575049,-98.8859"
       id="guide1323" />
    <sodipodi:guide
       orientation="horizontal"
       position="4.5148085,-88.845739"
       id="guide1325" />
    <sodipodi:guide
       orientation="vertical"
       position="-5.5253525,-98.8859"
       id="guide4953" />
    <sodipodi:guide
       orientation="vertical"
       position="44.575049,-98.8859"
       id="guide4955" />
    <sodipodi:guide
       orientation="vertical"
       position="34.534888,-98.8859"
       id="guide4957" />
  </sodipodi:namedview>
  <metadata
     id="metadata7">
    <rdf:RDF>
      <cc:Work
         rdf:about="">
        <dc:format>image/svg+xml</dc:format>
        <dc:type
           rdf:resource="http://purl.org/dc/dcmitype/StillImage" />
        <dc:title></dc:title>
      </cc:Work>
    </rdf:RDF>
  </metadata>
  <g
     inkscape:label="Ebene 1"
     inkscape:groupmode="layer"
     id="layer1"
     transform="translate(4.5148085,69.752042)">
    <path
       style="display:inline;fill:#000000;fill-opacity:1;stroke:none"
       d="m 425.71907,-39.223809 c 0,0 -116.6333,3.978175 -146.71037,-19.086762 -11.07873,11.395834 -17.98475,17.442992 -24.90872,15.557232 -3.07942,-4.584588 -7.57656,-21.707259 -14.59095,-3.404512 -7.91324,1.456423 -19.39628,-15.29691 -41.03262,-2.429802 -3.02845,-1.561146 -4.0193,-3.897721 -7.38966,-8.478213 -14.06459,7.471079 -25.02666,6.963368 -25.02666,6.963368 0,0 -6.30707,-25.706536 -22.57134,-6.964917 -5.36793,-5.581559 -38.80541,-31.831697 -61.685581,13.140841 0,0 5.222649,-3.926277 -40.730047,-6.112498 -4.978,-6.487248 -12.612156,-10.167329 -20.344613,-10.201587 -13.9580718,0.02377 -25.2670448,11.371378 -25.2432801,25.329446 0.02391,13.958069 11.3713823,25.2670827 25.3294391,25.2432797 7.740798,-0.1218455 14.864798,-3.6391957 19.548582,-9.3079117 49.140481,-4.047558 41.472862,-5.614102 41.472862,-5.614102 23.033268,44.894284 56.381078,18.5097185 61.729968,12.909909 16.32803,18.686077 22.54747,-7.041777 22.54747,-7.041777 0,1.6e-5 10.96027,-0.545058 25.05025,6.878058 3.35472,-4.591951 4.3376,-6.93191 7.36072,-8.503345 21.68005,12.7932961 33.10595,-3.999052 41.02411,-2.569596 7.0767,18.2787264 11.51547,1.140846 14.57924,-3.454206 6.91752,-1.909357 13.84409,4.114249 24.96157,15.472251 29.99832,-23.167281 146.64448,-19.586505 146.64448,-19.586505 z m -188.11283,3.915107 c 0.01,0.07083 2.2e-4,0.136871 3.4e-4,0.206608 0.0139,7.932976 -30.63439,15.938172 -34.35708,11.296947 -3.97495,-4.955748 8.75101,-4.889306 8.57603,-10.59194 -0.17499,-5.702652 -12.56729,-3.945089 -8.61208,-10.562663 3.62557,-6.066011 33.67941,3.678935 34.39279,9.651068 z m -77.09713,0.999017 -15.18685,10.603204 -13.90073,-10.553646 13.86469,-10.600951 z m -25.75557,15.661969 c 0.004,0.06134 -0.003,0.124886 3.1e-4,0.185945 0.005,0.103763 -0.001,0.206979 5.4e-4,0.309878 0.16392,9.5508529 -12.63286,15.177369 -33.96701,-2.255924 -0.64477,0.143759 -1.051481,0.07987 -1.26035,-0.101155 -0.0046,-0.0052 -0.01632,-0.01553 -0.02065,-0.02064 -1.10138,-1.310541 5.08223,-8.123191 3.24786,-9.529276 -4.634194,-3.881476 -5.651571,3.344279 -9.909917,3.714831 -2.651083,-3.961981 -3.313294,-4.621955 -7.946492,-7.919461 4.623064,-2.65221 4.621939,-3.313308 7.258383,-7.945365 5.287519,-0.670089 5.303289,8.585032 10.582926,3.287387 1.81044,-1.397574 -4.257316,-8.329468 -3.322052,-9.765991 0.0038,-0.0052 0.01672,-0.01633 0.02065,-0.02065 0.03588,-0.04225 0.09253,-0.09277 0.144456,-0.124209 0.02363,-0.01294 0.05654,-0.03102 0.08264,-0.04149 0.0218,-0.0068 0.06215,-0.01533 0.08264,-0.02065 0.227046,-0.05574 0.558036,-0.04362 0.991726,0.06032 29.04546,-24.774447 45.61912,2.566597 21.17938,14.507748 8.43242,4.312026 12.50911,10.50626 12.8352,15.678859 z"
       id="path15607"
       inkscape:connector-curvature="0"
       sodipodi:nodetypes="cccccccccccsccccccccccccccsssccccccccccccccccccccccccccc" />
  </g>
</svg>
