<?xml version="1.0" encoding="UTF-8" standalone="no"?>
<!-- Created with Inkscape (http://www.inkscape.org/) -->

<svg
   xmlns:dc="http://purl.org/dc/elements/1.1/"
   xmlns:cc="http://creativecommons.org/ns#"
   xmlns:rdf="http://www.w3.org/1999/02/22-rdf-syntax-ns#"
   xmlns:svg="http://www.w3.org/2000/svg"
   xmlns="http://www.w3.org/2000/svg"
   xmlns:sodipodi="http://sodipodi.sourceforge.net/DTD/sodipodi-0.dtd"
   xmlns:inkscape="http://www.inkscape.org/namespaces/inkscape"
   width="430.24872"
   height="70.866142"
   id="svg2"
   sodipodi:version="0.32"
   inkscape:version="0.91 r13725"
   version="1.0"
   sodipodi:docname="antique hand lines.svg">
  <sodipodi:namedview
     id="base"
     pagecolor="#ffffff"
     bordercolor="#666666"
     borderopacity="1.0"
     inkscape:pageopacity="0.0"
     inkscape:pageshadow="2"
     inkscape:zoom="4"
     inkscape:cx="27.122746"
     inkscape:cy="30.223311"
     inkscape:document-units="px"
     inkscape:current-layer="layer2"
     showguides="false"
     inkscape:guide-bbox="true"
     inkscape:window-width="1855"
     inkscape:window-height="1056"
     inkscape:window-x="1985"
     inkscape:window-y="24"
     showgrid="false"
     fit-margin-top="0"
     fit-margin-left="0"
     fit-margin-right="0"
     fit-margin-bottom="0"
     inkscape:window-maximized="1">
    <sodipodi:guide
       id="guide1307"
       position="4.5148085,-48.8859"
       orientation="horizontal" />
    <sodipodi:guide
       id="guide1309"
       position="54.514808,-98.8859"
       orientation="vertical" />
    <sodipodi:guide
       id="guide1311"
       position="4.5148085,1.1140999"
       orientation="horizontal" />
    <sodipodi:guide
       id="guide1313"
       position="4.5148085,-98.8859"
       orientation="vertical" />
    <sodipodi:guide
       id="guide1315"
       position="104.51481,-98.8859"
       orientation="vertical" />
    <sodipodi:guide
       id="guide1317"
       position="4.5148085,-98.8859"
       orientation="horizontal" />
    <sodipodi:guide
       id="guide1319"
       position="4.5148085,-8.8256591"
       orientation="horizontal" />
    <sodipodi:guide
       id="guide1321"
       position="14.554969,-98.8859"
       orientation="vertical" />
    <sodipodi:guide
       id="guide1323"
       position="94.575049,-98.8859"
       orientation="vertical" />
    <sodipodi:guide
       id="guide1325"
       position="4.5148085,-88.845739"
       orientation="horizontal" />
    <sodipodi:guide
       id="guide4953"
       position="-5.5253525,-98.8859"
       orientation="vertical" />
    <sodipodi:guide
       id="guide4955"
       position="44.575049,-98.8859"
       orientation="vertical" />
    <sodipodi:guide
       id="guide4957"
       position="34.534888,-98.8859"
       orientation="vertical" />
  </sodipodi:namedview>
  <defs
     id="defs4">
    <linearGradient
       id="linearGradient2202">
      <stop
         id="stop2204"
         offset="0"
         style="stop-color:#a5adad;stop-opacity:1;" />
      <stop
         id="stop2206"
         offset="1"
         style="stop-color:#e8f4ed;stop-opacity:1;" />
    </linearGradient>
  </defs>
  <metadata
     id="metadata7">
    <rdf:RDF>
      <cc:Work
         rdf:about="">
        <dc:format>image/svg+xml</dc:format>
        <dc:type
           rdf:resource="http://purl.org/dc/dcmitype/StillImage" />
        <dc:title />
      </cc:Work>
    </rdf:RDF>
  </metadata>
  <g
     transform="translate(4.5148085,69.752042)"
     id="layer1"
     inkscape:groupmode="layer"
     inkscape:label="hole3"
     style="display:none">
    <path
       style="display:inline;fill:#000000;fill-opacity:1;stroke:none"
       d="m 237.60624,-35.308702 3.4e-4,0.206608 -1.3196,2.95341 -3.51933,2.811134 -5.04419,2.519812 -5.8942,2.079443 -11.639,2.241592 -4.39509,-0.135945 -2.54567,-1.172499 -0.76557,-1.644067 0.45325,-1.299697 3.17535,-2.072124 3.88784,-2.212165 1.34386,-1.474748 0.4813,-1.889139 -0.58252,-1.819725 -1.39314,-1.305901 -3.87921,-1.81261 -3.10478,-1.984157 -0.42513,-1.520336 0.7727,-2.119934 2.48949,-1.571865 4.3136,-0.319085 11.48538,2.20218 10.93934,4.459332 3.63105,2.502355 1.53393,2.378151 0,-2e-5"
       id="path4162"
       inkscape:connector-curvature="0" />
  </g>
  <g
     inkscape:groupmode="layer"
     id="layer4"
     inkscape:label="hole2"
     style="display:none">
    <path
       transform="translate(4.5148085,69.752042)"
       style="display:inline;fill:#000000;fill-opacity:1;stroke:none"
       d="m 160.50911,-34.309685 -15.18685,10.603204 -13.90073,-10.553646 13.86469,-10.600951 15.22289,10.551393"
       id="path4160"
       inkscape:connector-curvature="0" />
  </g>
  <g
     inkscape:groupmode="layer"
     id="layer3"
     inkscape:label="hole1"
     style="display:none">
    <path
       transform="translate(4.5148085,69.752042)"
       style="display:inline;fill:#000000;fill-opacity:1;stroke:none;stroke-opacity:1"
       d="m 134.75385,-18.461771 -0.53688,3.670121 -1.70066,2.768092 -2.81204,1.951698 -3.87161,0.9110597 -4.87933,-0.3538219 -5.83521,-1.8429478 -6.73926,-3.556317 -7.59148,-5.49393 -1.281,-0.121795 0.300792,-1.844103 1.598008,-2.884706 1.46058,-2.90262 -0.11152,-1.897847 -2.904645,-1.109164 -2.191257,1.372069 -2.120784,2.169324 -2.693231,1.282602 -3.229953,-4.208909 -4.716539,-3.710552 4.374174,-3.23024 2.884209,-4.715125 1.756284,0.166152 1.385521,0.80979 2.152614,2.403085 2.151135,1.535419 1.383672,-0.274794 1.7537,-1.352265 0.11319,-1.913527 -1.44602,-2.954863 -1.610123,-2.962166 -0.379099,-1.935435 0.165106,-0.144859 0.16528,-0.06214 0.991726,0.06032 5.2929,-4.050964 4.95879,-2.928406 4.58286,-1.904748 4.16512,-0.979991 3.70558,-0.154131 3.20423,0.572828 2.66106,1.200888 2.0761,1.730049 2.23004,4.65198 0.0703,2.724133 -0.68188,2.857695 -1.47589,2.892358 -2.31172,2.828121 -3.18935,2.664986 -4.10879,2.40295 5.51707,3.541561 3.9404,3.975154 2.42047,4.136511 z"
       id="path15607"
       inkscape:connector-curvature="0"
       sodipodi:nodetypes="cccccccccccccccccccccccccccccccccccccccccccccccccccccc" />
  </g>
  <g
     inkscape:groupmode="layer"
     id="layer2"
     inkscape:label="body"
     style="display:inline">
    <path
       style="display:inline;fill:#000000;fill-opacity:1;stroke:none;stroke-opacity:1"
       d="m 430.23388,30.528233 -18.69391,0.2612 -19.79569,-0.218796 -23.58668,-0.936434 -24.99655,-2.017603 -24.02528,-3.462302 -10.90431,-2.386517 -9.76858,-2.884016 -8.3352,-3.426956 -6.60417,-4.015338 -7.59214,7.50362 -6.42026,5.255594 -5.64123,2.765295 -5.25509,0.03272 -2.59257,-5.039902 -3.22729,-5.245105 -1.88388,-1.294322 -2.08122,0.340593 -2.29144,2.537582 -2.51455,5.296642 -3.14766,-0.214005 -3.55947,-1.36066 -8.66302,-3.919243 -5.25783,-1.437562 -5.97826,-0.342177 -6.77583,1.313719 -7.65055,3.530126 -3.56661,-3.106852 -3.82305,-5.371361 -9.84391,4.239888 -7.94364,2.043451 -7.23911,0.680029 -1.23961,-3.723808 -1.61367,-3.421573 -2.33329,-3.365185 -3.09567,-2.486671 -3.90084,-0.786032 -4.74877,1.736731 -5.63949,5.081621 -3.25329,-2.882449 -5.43215,-3.743278 -7.15836,-3.527256 -8.4319,-2.234383 -4.55207,-0.295848 -4.70072,0.431188 -4.79277,1.292832 -4.82824,2.289082 -4.80714,3.419938 -4.729448,4.685401 -4.595175,6.085469 -4.30629,6.972505 -3.230791,-1.588776 -11.846921,-1.998692 -25.750363,-1.87739 -4.191563,-4.325988 -4.947822,-3.194677 -5.464283,-1.984741 -5.740945,-0.696181 -5.09314,0.5227 -4.743026,1.482201 -4.291149,2.33959 -3.7375132,3.09487 -3.0821142,3.748041 -2.3249543,4.299101 -1.4660328,4.748051 -0.5053501,5.094892 0.5227407,5.093141 1.4822195,4.743029 2.339593,4.291155 3.0948613,3.737517 3.7480241,3.082117 4.299082,2.324954 4.748035,1.466028 5.094883,0.505339 5.661458,-0.708602 5.259213,-1.865278 4.686023,-2.905316 3.941888,-3.828716 27.211275,-2.584767 11.952836,-1.740118 2.308751,-1.289217 4.430257,7.604856 4.615882,6.069116 4.745379,4.668236 4.81876,3.402215 4.83602,2.271051 4.79714,1.274748 4.70215,0.413302 4.55104,-0.313284 8.42423,-2.266893 7.14629,-3.554933 5.41937,-3.764103 3.24345,-2.894402 5.65677,5.062372 4.75466,1.720539 3.89813,-0.799318 3.08719,-2.497203 2.3218,-3.373112 1.60201,-3.427048 1.22691,-3.728007 7.24138,0.655367 7.95056,2.01637 9.85831,4.206321 3.80471,-5.384366 3.55601,-3.118979 7.66253,3.504033 6.78027,1.290622 5.97705,-0.362545 5.25291,-1.455468 8.64962,-3.948733 3.55482,-1.372778 3.14691,-0.224727 2.53258,5.28804 2.30007,2.529757 2.08236,0.3335 1.87946,-1.300733 3.2094,-5.256067 2.57537,-5.048703 5.25518,0.01481 5.65062,2.746056 6.43811,5.233685 7.61766,7.4777 6.59046,-4.037816 8.32347,-3.455335 9.75869,-2.917282 10.89612,-2.423655 24.01335,-3.544139 24.98952,-2.102756 23.58335,-1.01679 19.79483,-0.286239 18.69469,0.197507 z"
       id="path4164"
       inkscape:connector-curvature="0"
       sodipodi:nodetypes="cccccccccccccccccccccccccccccccccccccccccccccccccccccccccccccccccccccccccccccccccccccccccccccccccccccccccccccccccccccccccccccccccccc" />
  </g>
  <g
     style="display:none"
     inkscape:groupmode="layer"
     id="layer5"
     inkscape:label="base">
    <path
       style="display:inline;fill:#000000;fill-opacity:1;stroke:none;stroke-opacity:1"
       d="m 25.244141,9.5097656 -5.09375,0.5234374 -4.744141,1.482422 -4.291016,2.337891 -3.7363278,3.095703 -3.0820312,3.748047 -2.3261719,4.298828 -1.46484372,4.748047 -0.50585938,5.095703 0.5234375,5.091797 1.4824219,4.74414 2.3378906,4.291016 3.0957031,3.738281 3.7480469,3.082031 4.298828,2.324219 4.748047,1.466797 5.095703,0.503906 5.660156,-0.707031 5.259766,-1.865234 4.685547,-2.90625 3.943359,-3.828125 27.210938,-2.585938 11.953125,-1.740234 2.21875,-0.794922 0.962239,-4.96842 0.04699,-10.329029 -0.788524,-4.817786 -0.427734,-0.541015 -2.869141,-1.410156 -11.847656,-1.998047 -25.75,-1.878906 -4.191407,-4.326172 -4.947265,-3.19336 -5.464844,-1.984375 z"
       id="path4164-2"
       inkscape:connector-curvature="0"
       sodipodi:nodetypes="ccccccccccccccccccccccccccccccccccc" />
  </g>
  <g
     inkscape:label="arm"
     id="layer6"
     inkscape:groupmode="layer"
     style="display:none">
    <path
       sodipodi:nodetypes="ccccccc"
       inkscape:connector-curvature="0"
       id="path4150-9"
       d="m 72.7246,41.706058 2.689861,-0.542847 2.196576,-1.480884 1.480908,-2.196559 0.542855,-2.68987 -0.542855,-2.68987 -1.480908,-2.196559 -2.196576,-1.480884 -2.689861,-0.542847 -47.4806,-3.54297 -4.068878,0.821362 -3.322647,2.240182 -2.240134,3.322692 -0.821341,4.068894 0.821356,4.068894 2.240169,3.322692 3.322681,2.240182 4.068894,0.821362 47.4805,-3.54297"
       style="fill:#000000;fill-opacity:1" />
  </g>
</svg>
