  0
SECTION
  2
HEADER
  9
$ACADVER
  1
AC1009
  9
$EXTMIN
 10
0.0
 20
0.0
 30
0.0
  9
$EXTMAX
 10
1000.0
 20
1000.0
 30
0.0
  9
$FILLMODE
 70
 0
  9
$SPLFRAME
 70
 1
  0
ENDSEC
  0
SECTION
  2
TABLES
  0
TABLE
  2
LAYER
 70
1
  0
LAYER
  2
0
 70
     0
 62
     7
  6
CONTINUOUS
  0
ENDTAB
  0
ENDSEC
  0
SECTION
  2
ENTITIES
  0
POLYLINE
  8
0
 62
     0
 66
     1
 10
0
 20
0
 30
0.0
 70
     1
 40
0
 41
0
  0
VERTEX
  8
0
 10
0.942383
 20
0.280599
 30
0.0
 40
0
 41
0
  0
VERTEX
  8
0
 10
0.983724
 20
0.231825
 30
0.0
 40
0
 41
0
  0
VERTEX
  8
0
 10
1.0268
 20
0.175185
 30
0.0
 40
0
 41
0
  0
VERTEX
  8
0
 10
1.07113
 20
0.131565
 30
0.0
 40
0
 41
0
  0
VERTEX
  8
0
 10
1.1161
 20
0.0998264
 30
0.0
 40
0
 41
0
  0
VERTEX
  8
0
 10
1.1613
 20
0.0786133
 30
0.0
 40
0
 41
0
  0
VERTEX
  8
0
 10
1.20605
 20
0.0666775
 30
0.0
 40
0
 41
0
  0
VERTEX
  8
0
 10
1.25
 20
0.0628256
 30
0.0
 40
0
 41
0
  0
VERTEX
  8
0
 10
1.29248
 20
0.0657553
 30
0.0
 40
0
 41
0
  0
VERTEX
  8
0
 10
1.37115
 20
0.086914
 30
0.0
 40
0
 41
0
  0
VERTEX
  8
0
 10
1.43782
 20
0.120117
 30
0.0
 40
0
 41
0
  0
VERTEX
  8
0
 10
1.48844
 20
0.155274
 30
0.0
 40
0
 41
0
  0
VERTEX
  8
0
 10
1.51872
 20
0.182346
 30
0.0
 40
0
 41
0
  0
VERTEX
  8
0
 10
1.57156
 20
0.135037
 30
0.0
 40
0
 41
0
  0
VERTEX
  8
0
 10
1.61594
 20
0.118978
 30
0.0
 40
0
 41
0
  0
VERTEX
  8
0
 10
1.65235
 20
0.126411
 30
0.0
 40
0
 41
0
  0
VERTEX
  8
0
 10
1.68121
 20
0.14974
 30
0.0
 40
0
 41
0
  0
VERTEX
  8
0
 10
1.70285
 20
0.181261
 30
0.0
 40
0
 41
0
  0
VERTEX
  8
0
 10
1.71783
 20
0.213217
 30
0.0
 40
0
 41
0
  0
VERTEX
  8
0
 10
1.72928
 20
0.248047
 30
0.0
 40
0
 41
0
  0
VERTEX
  8
0
 10
1.79688
 20
0.241917
 30
0.0
 40
0
 41
0
  0
VERTEX
  8
0
 10
1.8711
 20
0.22309
 30
0.0
 40
0
 41
0
  0
VERTEX
  8
0
 10
1.96317
 20
0.183811
 30
0.0
 40
0
 41
0
  0
VERTEX
  8
0
 10
1.99869
 20
0.234104
 30
0.0
 40
0
 41
0
  0
VERTEX
  8
0
 10
2.0319
 20
0.263238
 30
0.0
 40
0
 41
0
  0
VERTEX
  8
0
 10
2.10346
 20
0.230524
 30
0.0
 40
0
 41
0
  0
VERTEX
  8
0
 10
2.16678
 20
0.218479
 30
0.0
 40
0
 41
0
  0
VERTEX
  8
0
 10
2.22254
 20
0.221843
 30
0.0
 40
0
 41
0
  0
VERTEX
  8
0
 10
2.2716
 20
0.23546
 30
0.0
 40
0
 41
0
  0
VERTEX
  8
0
 10
2.35238
 20
0.272299
 30
0.0
 40
0
 41
0
  0
VERTEX
  8
0
 10
2.38558
 20
0.285101
 30
0.0
 40
0
 41
0
  0
VERTEX
  8
0
 10
2.41493
 20
0.287218
 30
0.0
 40
0
 41
0
  0
VERTEX
  8
0
 10
2.43858
 20
0.237901
 30
0.0
 40
0
 41
0
  0
VERTEX
  8
0
 10
2.46007
 20
0.214247
 30
0.0
 40
0
 41
0
  0
VERTEX
  8
0
 10
2.47949
 20
0.2111
 30
0.0
 40
0
 41
0
  0
VERTEX
  8
0
 10
2.49707
 20
0.223253
 30
0.0
 40
0
 41
0
  0
VERTEX
  8
0
 10
2.52701
 20
0.272353
 30
0.0
 40
0
 41
0
  0
VERTEX
  8
0
 10
2.55106
 20
0.319499
 30
0.0
 40
0
 41
0
  0
VERTEX
  8
0
 10
2.60015
 20
0.319336
 30
0.0
 40
0
 41
0
  0
VERTEX
  8
0
 10
2.65289
 20
0.293674
 30
0.0
 40
0
 41
0
  0
VERTEX
  8
0
 10
2.713
 20
0.244846
 30
0.0
 40
0
 41
0
  0
VERTEX
  8
0
 10
2.78413
 20
0.175022
 30
0.0
 40
0
 41
0
  0
VERTEX
  8
0
 10
2.84571
 20
0.212674
 30
0.0
 40
0
 41
0
  0
VERTEX
  8
0
 10
2.92339
 20
0.244954
 30
0.0
 40
0
 41
0
  0
VERTEX
  8
0
 10
3.01454
 20
0.27219
 30
0.0
 40
0
 41
0
  0
VERTEX
  8
0
 10
3.11626
 20
0.294814
 30
0.0
 40
0
 41
0
  0
VERTEX
  8
0
 10
3.34044
 20
0.327908
 30
0.0
 40
0
 41
0
  0
VERTEX
  8
0
 10
3.57379
 20
0.347547
 30
0.0
 40
0
 41
0
  0
VERTEX
  8
0
 10
3.794
 20
0.357096
 30
0.0
 40
0
 41
0
  0
VERTEX
  8
0
 10
3.97885
 20
0.3597
 30
0.0
 40
0
 41
0
  0
VERTEX
  8
0
 10
4.15338
 20
0.357856
 30
0.0
 40
0
 41
0
  0
VERTEX
  8
0
 10
4.15326
 20
0.439507
 30
0.0
 40
0
 41
0
  0
VERTEX
  8
0
 10
3.97868
 20
0.437067
 30
0.0
 40
0
 41
0
  0
VERTEX
  8
0
 10
3.79383
 20
0.439074
 30
0.0
 40
0
 41
0
  0
VERTEX
  8
0
 10
3.57362
 20
0.447808
 30
0.0
 40
0
 41
0
  0
VERTEX
  8
0
 10
3.34022
 20
0.466635
 30
0.0
 40
0
 41
0
  0
VERTEX
  8
0
 10
3.11594
 20
0.498969
 30
0.0
 40
0
 41
0
  0
VERTEX
  8
0
 10
3.01411
 20
0.521268
 30
0.0
 40
0
 41
0
  0
VERTEX
  8
0
 10
2.9229
 20
0.548232
 30
0.0
 40
0
 41
0
  0
VERTEX
  8
0
 10
2.84506
 20
0.580186
 30
0.0
 40
0
 41
0
  0
VERTEX
  8
0
 10
2.78336
 20
0.617676
 30
0.0
 40
0
 41
0
  0
VERTEX
  8
0
 10
2.71251
 20
0.547635
 30
0.0
 40
0
 41
0
  0
VERTEX
  8
0
 10
2.65256
 20
0.498535
 30
0.0
 40
0
 41
0
  0
VERTEX
  8
0
 10
2.59987
 20
0.472711
 30
0.0
 40
0
 41
0
  0
VERTEX
  8
0
 10
2.55083
 20
0.472439
 30
0.0
 40
0
 41
0
  0
VERTEX
  8
0
 10
2.52658
 20
0.519476
 30
0.0
 40
0
 41
0
  0
VERTEX
  8
0
 10
2.49647
 20
0.568468
 30
0.0
 40
0
 41
0
  0
VERTEX
  8
0
 10
2.47889
 20
0.580567
 30
0.0
 40
0
 41
0
  0
VERTEX
  8
0
 10
2.45947
 20
0.577365
 30
0.0
 40
0
 41
0
  0
VERTEX
  8
0
 10
2.43804
 20
0.553657
 30
0.0
 40
0
 41
0
  0
VERTEX
  8
0
 10
2.41456
 20
0.504232
 30
0.0
 40
0
 41
0
  0
VERTEX
  8
0
 10
2.38519
 20
0.506239
 30
0.0
 40
0
 41
0
  0
VERTEX
  8
0
 10
2.35194
 20
0.518935
 30
0.0
 40
0
 41
0
  0
VERTEX
  8
0
 10
2.27106
 20
0.555501
 30
0.0
 40
0
 41
0
  0
VERTEX
  8
0
 10
2.22194
 20
0.568956
 30
0.0
 40
0
 41
0
  0
VERTEX
  8
0
 10
2.16612
 20
0.572157
 30
0.0
 40
0
 41
0
  0
VERTEX
  8
0
 10
2.10286
 20
0.559842
 30
0.0
 40
0
 41
0
  0
VERTEX
  8
0
 10
2.03147
 20
0.52691
 30
0.0
 40
0
 41
0
  0
VERTEX
  8
0
 10
1.99815
 20
0.555935
 30
0.0
 40
0
 41
0
  0
VERTEX
  8
0
 10
1.96246
 20
0.606065
 30
0.0
 40
0
 41
0
  0
VERTEX
  8
0
 10
1.87056
 20
0.566461
 30
0.0
 40
0
 41
0
  0
VERTEX
  8
0
 10
1.79639
 20
0.547418
 30
0.0
 40
0
 41
0
  0
VERTEX
  8
0
 10
1.72879
 20
0.541124
 30
0.0
 40
0
 41
0
  0
VERTEX
  8
0
 10
1.71718
 20
0.575846
 30
0.0
 40
0
 41
0
  0
VERTEX
  8
0
 10
1.7021
 20
0.607747
 30
0.0
 40
0
 41
0
  0
VERTEX
  8
0
 10
1.68033
 20
0.639214
 30
0.0
 40
0
 41
0
  0
VERTEX
  8
0
 10
1.65142
 20
0.662435
 30
0.0
 40
0
 41
0
  0
VERTEX
  8
0
 10
1.61501
 20
0.66976
 30
0.0
 40
0
 41
0
  0
VERTEX
  8
0
 10
1.57069
 20
0.653537
 30
0.0
 40
0
 41
0
  0
VERTEX
  8
0
 10
1.51801
 20
0.606065
 30
0.0
 40
0
 41
0
  0
VERTEX
  8
0
 10
1.48763
 20
0.632975
 30
0.0
 40
0
 41
0
  0
VERTEX
  8
0
 10
1.4369
 20
0.667969
 30
0.0
 40
0
 41
0
  0
VERTEX
  8
0
 10
1.37006
 20
0.7009
 30
0.0
 40
0
 41
0
  0
VERTEX
  8
0
 10
1.29134
 20
0.721733
 30
0.0
 40
0
 41
0
  0
VERTEX
  8
0
 10
1.24886
 20
0.724501
 30
0.0
 40
0
 41
0
  0
VERTEX
  8
0
 10
1.20497
 20
0.72054
 30
0.0
 40
0
 41
0
  0
VERTEX
  8
0
 10
1.16021
 20
0.708442
 30
0.0
 40
0
 41
0
  0
VERTEX
  8
0
 10
1.11513
 20
0.687067
 30
0.0
 40
0
 41
0
  0
VERTEX
  8
0
 10
1.07026
 20
0.655111
 30
0.0
 40
0
 41
0
  0
VERTEX
  8
0
 10
1.0261
 20
0.611382
 30
0.0
 40
0
 41
0
  0
VERTEX
  8
0
 10
0.983182
 20
0.554525
 30
0.0
 40
0
 41
0
  0
VERTEX
  8
0
 10
0.942979
 20
0.511664
 30
0.0
 40
0
 41
0
  0
VERTEX
  8
0
 10
0.924262
 20
0.525282
 30
0.0
 40
0
 41
0
  0
VERTEX
  8
0
 10
0.792643
 20
0.547472
 30
0.0
 40
0
 41
0
  0
VERTEX
  8
0
 10
0.506511
 20
0.56836
 30
0.0
 40
0
 41
0
  0
VERTEX
  8
0
 10
0.459961
 20
0.616428
 30
0.0
 40
0
 41
0
  0
VERTEX
  8
0
 10
0.405003
 20
0.65191
 30
0.0
 40
0
 41
0
  0
VERTEX
  8
0
 10
0.344293
 20
0.67399
 30
0.0
 40
0
 41
0
  0
VERTEX
  8
0
 10
0.28049
 20
0.681749
 30
0.0
 40
0
 41
0
  0
VERTEX
  8
0
 10
0.223904
 20
0.67589
 30
0.0
 40
0
 41
0
  0
VERTEX
  8
0
 10
0.171169
 20
0.659451
 30
0.0
 40
0
 41
0
  0
VERTEX
  8
0
 10
0.123481
 20
0.63341
 30
0.0
 40
0
 41
0
  0
VERTEX
  8
0
 10
0.0819769
 20
0.599012
 30
0.0
 40
0
 41
0
  0
VERTEX
  8
0
 10
0.0477431
 20
0.5574
 30
0.0
 40
0
 41
0
  0
VERTEX
  8
0
 10
0.0219185
 20
0.509603
 30
0.0
 40
0
 41
0
  0
VERTEX
  8
0
 10
0.00564236
 20
0.456868
 30
0.0
 40
0
 41
0
  0
VERTEX
  8
0
 10
0
 20
0.400228
 30
0.0
 40
0
 41
0
  0
VERTEX
  8
0
 10
0.00580512
 20
0.343696
 30
0.0
 40
0
 41
0
  0
VERTEX
  8
0
 10
0.0222982
 20
0.290961
 30
0.0
 40
0
 41
0
  0
VERTEX
  8
0
 10
0.0482856
 20
0.243272
 30
0.0
 40
0
 41
0
  0
VERTEX
  8
0
 10
0.0826824
 20
0.201768
 30
0.0
 40
0
 41
0
  0
VERTEX
  8
0
 10
0.124295
 20
0.167535
 30
0.0
 40
0
 41
0
  0
VERTEX
  8
0
 10
0.172092
 20
0.141656
 30
0.0
 40
0
 41
0
  0
VERTEX
  8
0
 10
0.224826
 20
0.12538
 30
0.0
 40
0
 41
0
  0
VERTEX
  8
0
 10
0.281467
 20
0.119846
 30
0.0
 40
0
 41
0
  0
VERTEX
  8
0
 10
0.344347
 20
0.127658
 30
0.0
 40
0
 41
0
  0
VERTEX
  8
0
 10
0.402778
 20
0.148383
 30
0.0
 40
0
 41
0
  0
VERTEX
  8
0
 10
0.454861
 20
0.180664
 30
0.0
 40
0
 41
0
  0
VERTEX
  8
0
 10
0.498643
 20
0.223199
 30
0.0
 40
0
 41
0
  0
VERTEX
  8
0
 10
0.800999
 20
0.251899
 30
0.0
 40
0
 41
0
  0
VERTEX
  8
0
 10
0.921332
 20
0.271268
 30
0.0
 40
0
 41
0
  0
VERTEX
  8
0
 10
0.942383
 20
0.280599
 30
0.0
 40
0
 41
0
  0
SEQEND
 8
0
  0
ENDSEC
  0
EOF
