  0
SECTION
  2
HEADER
  9
$ACADVER
  1
AC1014
  9
$HANDSEED
  5
FFFF
  9
$MEASUREMENT
 70
     1
  0
ENDSEC
  0
SECTION
  2
TABLES
  0
TABLE
  2
VPORT
  5
8
330
0
100
AcDbSymbolTable
 70
     4
  0
VPORT
  5
2E
330
8
100
AcDbSymbolTableRecord
100
AcDbViewportTableRecord
  2
*ACTIVE
 70
     0
 10
0.0
 20
0.0
 11
1.0
 21
1.0
 12
210.0
 22
148.5
 13
0.0
 23
0.0
 14
10.0
 24
10.0
 15
10.0
 25
10.0
 16
0.0
 26
0.0
 36
1.0
 17
0.0
 27
0.0
 37
0.0
 40
341.0
 41
1.24
 42
50.0
 43
0.0
 44
0.0
 50
0.0
 51
0.0
 71
     0
 72
   100
 73
     1
 74
     3
 75
     0
 76
     0
 77
     0
 78
     0
  0
ENDTAB
  0
TABLE
  2
LTYPE
  5
5
330
0
100
AcDbSymbolTable
 70
     1
  0
LTYPE
  5
14
330
5
100
AcDbSymbolTableRecord
100
AcDbLinetypeTableRecord
  2
BYBLOCK
 70
     0
  3

 72
    65
 73
     0
 40
0.0
  0
LTYPE
  5
15
330
5
100
AcDbSymbolTableRecord
100
AcDbLinetypeTableRecord
  2
BYLAYER
 70
     0
  3

 72
    65
 73
     0
 40
0.0
  0
LTYPE
  5
16
330
5
100
AcDbSymbolTableRecord
100
AcDbLinetypeTableRecord
  2
CONTINUOUS
 70
     0
  3
Solid line
 72
    65
 73
     0
 40
0.0
  0
ENDTAB
  0
TABLE
  2
LAYER
  5
2
100
AcDbSymbolTable
 70
4
  0
LAYER
  5
50
100
AcDbSymbolTableRecord
100
AcDbLayerTableRecord
  2
0
 70
0
  6
CONTINUOUS
  0
LAYER
  5
51
100
AcDbSymbolTableRecord
100
AcDbLayerTableRecord
  2
body
 70
0
  6
CONTINUOUS
  0
LAYER
  5
52
100
AcDbSymbolTableRecord
100
AcDbLayerTableRecord
  2
base
 70
0
  6
CONTINUOUS
  0
LAYER
  5
53
100
AcDbSymbolTableRecord
100
AcDbLayerTableRecord
  2
arm
 70
0
  6
CONTINUOUS
  0
ENDTAB
  0
TABLE
  2
STYLE
  5
3
330
0
100
AcDbSymbolTable
 70
     1
  0
STYLE
  5
11
330
3
100
AcDbSymbolTableRecord
100
AcDbTextStyleTableRecord
  2
STANDARD
 70
     0
 40
0.0
 41
1.0
 50
0.0
 71
     0
 42
2.5
  3
txt
  4

  0
ENDTAB
  0
TABLE
  2
VIEW
  5
6
330
0
100
AcDbSymbolTable
 70
     0
  0
ENDTAB
  0
TABLE
  2
UCS
  5
7
330
0
100
AcDbSymbolTable
 70
     0
  0
ENDTAB
  0
TABLE
  2
APPID
  5
9
330
0
100
AcDbSymbolTable
 70
     2
  0
APPID
  5
12
330
9
100
AcDbSymbolTableRecord
100
AcDbRegAppTableRecord
  2
ACAD
 70
     0
  0
ENDTAB
  0
TABLE
  2
DIMSTYLE
  5
A
330
0
100
AcDbSymbolTable
 70
     1
  0
DIMSTYLE
105
27
330
A
100
AcDbSymbolTableRecord
100
AcDbDimStyleTableRecord
  2
ISO-25
 70
     0
  3

  4

  5

  6

  7

 40
1.0
 41
2.5
 42
0.625
 43
3.75
 44
1.25
 45
0.0
 46
0.0
 47
0.0
 48
0.0
140
2.5
141
2.5
142
0.0
143
0.03937007874016
144
1.0
145
0.0
146
1.0
147
0.625
 71
     0
 72
     0
 73
     0
 74
     0
 75
     0
 76
     0
 77
     1
 78
     8
170
     0
171
     3
172
     1
173
     0
174
     0
175
     0
176
     0
177
     0
178
     0
270
     2
271
     2
272
     2
273
     2
274
     3
340
11
275
     0
280
     0
281
     0
282
     0
283
     0
284
     8
285
     0
286
     0
287
     3
288
     0
  0
ENDTAB
  0
TABLE
  2
BLOCK_RECORD
  5
1
330
0
100
AcDbSymbolTable
 70
     1
  0
BLOCK_RECORD
  5
1F
330
1
100
AcDbSymbolTableRecord
100
AcDbBlockTableRecord
  2
*MODEL_SPACE
  0
BLOCK_RECORD
  5
1B
330
1
100
AcDbSymbolTableRecord
100
AcDbBlockTableRecord
  2
*PAPER_SPACE
  0
ENDTAB
  0
ENDSEC
  0
SECTION
  2
BLOCKS
  0
BLOCK
  5
20
330
1F
100
AcDbEntity
  8
0
100
AcDbBlockBegin
  2
*MODEL_SPACE
 70
     0
 10
0.0
 20
0.0
 30
0.0
  3
*MODEL_SPACE
  1

  0
ENDBLK
  5
21
330
1F
100
AcDbEntity
  8
0
100
AcDbBlockEnd
  0
BLOCK
  5
1C
330
1B
100
AcDbEntity
 67
     1
  8
0
100
AcDbBlockBegin
  2
*PAPER_SPACE
  1

  0
ENDBLK
  5
1D
330
1B
100
AcDbEntity
 67
     1
  8
0
100
AcDbBlockEnd
  0
ENDSEC
  0
SECTION
  2
ENTITIES
  0
LWPOLYLINE
  5
100
100
AcDbEntity
  8
body
 62
7
100
AcDbPolyline
 90
133
 70
0
 10
23.936007
 20
7.128155
 30
0.0
 10
24.986568
 20
5.888857
 30
0.0
 10
26.081135
 20
4.449661
 30
0.0
 10
27.206736
 20
3.342588
 30
0.0
 10
28.349476
 20
2.535674
 30
0.0
 10
29.496388
 20
1.996960
 30
0.0
 10
30.634031
 20
1.694484
 30
0.0
 10
31.749444
 20
1.596746
 30
0.0
 10
32.828727
 20
1.670860
 30
0.0
 10
34.826552
 20
2.208648
 30
0.0
 10
36.521441
 20
3.051691
 30
0.0
 10
37.806850
 20
3.944298
 30
0.0
 10
38.575782
 20
4.630776
 30
0.0
 10
39.917703
 20
3.430134
 30
0.0
 10
41.045158
 20
3.022046
 30
0.0
 10
41.969724
 20
3.211962
 30
0.0
 10
42.702062
 20
3.803945
 30
0.0
 10
43.252356
 20
4.603910
 30
0.0
 10
43.632651
 20
5.416845
 30
0.0
 10
43.923551
 20
6.301115
 30
0.0
 10
45.640670
 20
6.145476
 30
0.0
 10
47.526403
 20
5.667442
 30
0.0
 10
49.864227
 20
4.669686
 30
0.0
 10
50.766562
 20
5.946758
 30
0.0
 10
51.610068
 20
6.686506
 30
0.0
 10
53.427243
 20
5.855506
 30
0.0
 10
55.035512
 20
5.549323
 30
0.0
 10
56.452937
 20
5.635017
 30
0.0
 10
57.698973
 20
5.980573
 30
0.0
 10
59.750071
 20
6.916722
 30
0.0
 10
60.593117
 20
7.242359
 30
0.0
 10
61.339346
 20
7.295628
 30
0.0
 10
61.940130
 20
6.041717
 30
0.0
 10
62.485792
 20
5.441859
 30
0.0
 10
62.979577
 20
5.362650
 30
0.0
 10
63.425186
 20
5.671148
 30
0.0
 10
64.186240
 20
6.917648
 30
0.0
 10
64.797215
 20
8.115048
 30
0.0
 10
66.043717
 20
8.111342
 30
0.0
 10
67.383784
 20
7.460068
 30
0.0
 10
68.910527
 20
6.219126
 30
0.0
 10
70.717049
 20
4.445492
 30
0.0
 10
72.280385
 20
5.402949
 30
0.0
 10
74.254126
 20
6.222832
 30
0.0
 10
76.568788
 20
6.914406
 30
0.0
 10
79.153044
 20
7.489250
 30
0.0
 10
84.847757
 20
8.329978
 30
0.0
 10
90.774537
 20
8.828393
 30
0.0
 10
96.367809
 20
9.069725
 30
0.0
 10
101.062449
 20
9.137354
 30
0.0
 10
105.495841
 20
9.090570
 30
0.0
 10
105.492595
 20
11.163438
 30
0.0
 10
101.058740
 20
11.101368
 30
0.0
 10
96.364100
 20
11.153248
 30
0.0
 10
90.770366
 20
11.375125
 30
0.0
 10
84.841732
 20
11.853622
 30
0.0
 10
79.144241
 20
12.674895
 30
0.0
 10
76.558134
 20
13.240938
 30
0.0
 10
74.241155
 20
13.925101
 30
0.0
 10
72.264168
 20
14.737572
 30
0.0
 10
70.698055
 20
15.689934
 30
0.0
 10
68.897554
 20
13.910278
 30
0.0
 10
67.374982
 20
12.663778
 30
0.0
 10
66.036766
 20
12.007871
 30
0.0
 10
64.790726
 20
12.000460
 30
0.0
 10
64.175584
 20
13.195544
 30
0.0
 10
63.410361
 20
14.439728
 30
0.0
 10
62.963363
 20
14.746373
 30
0.0
 10
62.470041
 20
14.665775
 30
0.0
 10
61.926696
 20
14.064064
 30
0.0
 10
61.330081
 20
12.807837
 30
0.0
 10
60.583846
 20
12.858326
 30
0.0
 10
59.739414
 20
13.181184
 30
0.0
 10
57.685076
 20
14.110848
 30
0.0
 10
56.438111
 20
14.451771
 30
0.0
 10
55.020224
 20
14.532834
 30
0.0
 10
53.413347
 20
14.221092
 30
0.0
 10
51.598949
 20
13.384071
 30
0.0
 10
50.752663
 20
14.121039
 30
0.0
 10
49.846159
 20
15.394869
 30
0.0
 10
47.511575
 20
14.389238
 30
0.0
 10
45.627699
 20
13.904719
 30
0.0
 10
43.910577
 20
13.743059
 30
0.0
 10
43.616903
 20
14.626402
 30
0.0
 10
43.233825
 20
15.437947
 30
0.0
 10
42.680752
 20
16.236059
 30
0.0
 10
41.946562
 20
16.825727
 30
0.0
 10
41.021531
 20
17.011937
 30
0.0
 10
39.895004
 20
16.600143
 30
0.0
 10
38.557714
 20
15.394869
 30
0.0
 10
37.786002
 20
16.078567
 30
0.0
 10
36.497816
 20
16.966543
 30
0.0
 10
34.800148
 20
17.803101
 30
0.0
 10
32.800468
 20
18.333014
 30
0.0
 10
31.720722
 20
18.402959
 30
0.0
 10
31.720736
 20
18.402959
 30
0.0
 10
30.605789
 20
18.301053
 30
0.0
 10
29.469069
 20
17.994407
 30
0.0
 10
28.324011
 20
17.451524
 30
0.0
 10
27.184051
 20
16.640442
 30
0.0
 10
26.062616
 20
15.529199
 30
0.0
 10
24.972682
 20
14.085835
 30
0.0
 10
23.951303
 20
12.996617
 30
0.0
 10
23.476810
 20
13.342422
 30
0.0
 10
20.133138
 20
13.906866
 30
0.0
 10
12.865916
 20
14.436584
 30
0.0
 10
11.683008
 20
15.657526
 30
0.0
 10
10.286780
 20
16.559314
 30
0.0
 10
8.744479
 20
17.119349
 30
0.0
 10
7.124458
 20
17.315582
 30
0.0
 10
5.686888
 20
17.168407
 30
0.0
 10
4.347986
 20
16.750035
 30
0.0
 10
3.136966
 20
16.089679
 30
0.0
 10
2.082491
 20
15.216003
 30
0.0
 10
1.212674
 20
14.158220
 30
0.0
 10
0.556176
 20
12.944996
 30
0.0
 10
0.142765
 20
11.604991
 30
0.0
 10
-0.000000
 20
10.166871
 30
0.0
 10
0.147726
 20
8.729852
 30
0.0
 10
0.566098
 20
7.390951
 30
0.0
 10
1.225903
 20
6.179931
 30
0.0
 10
2.099579
 20
5.125456
 30
0.0
 10
3.157361
 20
4.255638
 30
0.0
 10
4.370586
 20
3.599141
 30
0.0
 10
5.710590
 20
3.185729
 30
0.0
 10
7.148711
 20
3.042965
 30
0.0
 10
8.746133
 20
3.243056
 30
0.0
 10
10.230556
 20
3.769466
 30
0.0
 10
11.552921
 20
4.589123
 30
0.0
 10
12.665825
 20
5.670056
 30
0.0
 10
20.345356
 20
6.399314
 30
0.0
 10
23.401293
 20
6.890447
 30
0.0
 10
23.936007
 20
7.128155
 30
0.0
  0
LWPOLYLINE
  5
101
100
AcDbEntity
  8
body
 62
7
100
AcDbPolyline
 90
55
 70
0
 10
33.803793
 20
15.818243
 30
0.0
 10
34.563922
 20
15.682522
 30
0.0
 10
35.194816
 20
15.397648
 30
0.0
 10
35.687209
 20
14.987243
 30
0.0
 10
36.216198
 20
13.884338
 30
0.0
 10
36.232877
 20
13.238159
 30
0.0
 10
36.071217
 20
12.560481
 30
0.0
 10
35.721030
 20
11.874466
 30
0.0
 10
35.173051
 20
11.203737
 30
0.0
 10
34.416627
 20
10.571455
 30
0.0
 10
33.442032
 20
10.001706
 30
0.0
 10
34.750604
 20
9.161904
 30
0.0
 10
35.684897
 20
8.219270
 30
0.0
 10
36.258819
 20
7.238190
 30
0.0
 10
36.486253
 20
6.239044
 30
0.0
 10
36.358870
 20
5.368671
 30
0.0
 10
35.955416
 20
4.712302
 30
0.0
 10
35.288392
 20
4.249554
 30
0.0
 10
34.370309
 20
4.033235
 30
0.0
 10
33.213207
 20
4.117076
 30
0.0
 10
31.829132
 20
4.554347
 30
0.0
 10
30.231055
 20
5.397854
 30
0.0
 10
28.430556
 20
6.700865
 30
0.0
 10
28.126688
 20
6.729585
 30
0.0
 10
28.198025
 20
7.166856
 30
0.0
 10
28.576930
 20
7.851018
 30
0.0
 10
28.923412
 20
8.539349
 30
0.0
 10
28.897024
 20
8.989590
 30
0.0
 10
28.208227
 20
9.252694
 30
0.0
 10
27.688507
 20
8.927056
 30
0.0
 10
27.185460
 20
8.412892
 30
0.0
 10
26.546692
 20
8.108563
 30
0.0
 10
25.780541
 20
9.106782
 30
0.0
 10
24.661888
 20
9.986883
 30
0.0
 10
25.699481
 20
10.753033
 30
0.0
 10
26.383641
 20
11.871224
 30
0.0
 10
26.800068
 20
11.831851
 30
0.0
 10
27.128485
 20
11.639619
 30
0.0
 10
27.638943
 20
11.069869
 30
0.0
 10
28.149401
 20
10.705786
 30
0.0
 10
28.477354
 20
10.770635
 30
0.0
 10
28.893318
 20
11.091640
 30
0.0
 10
28.920186
 20
11.545124
 30
0.0
 10
28.577413
 20
12.245961
 30
0.0
 10
28.195262
 20
12.948652
 30
0.0
 10
28.105400
 20
13.407694
 30
0.0
 10
28.144773
 20
13.441972
 30
0.0
 10
28.183683
 20
13.456794
 30
0.0
 10
28.418993
 20
13.442434
 30
0.0
 10
29.674295
 20
14.403133
 30
0.0
 10
30.850386
 20
15.097486
 30
0.0
 10
31.937077
 20
15.549580
 30
0.0
 10
32.925108
 20
15.781649
 30
0.0
 10
33.803816
 20
15.818242
 30
0.0
 10
33.803793
 20
15.818243
 30
0.0
  0
LWPOLYLINE
  5
102
100
AcDbEntity
  8
body
 62
7
100
AcDbPolyline
 90
27
 70
0
 10
54.335612
 20
12.972276
 30
0.0
 10
57.059754
 20
12.449774
 30
0.0
 10
59.654197
 20
11.392264
 30
0.0
 10
60.515305
 20
10.798891
 30
0.0
 10
60.878926
 20
10.234701
 30
0.0
 10
60.878926
 20
10.185600
 30
0.0
 10
60.566258
 20
9.485225
 30
0.0
 10
59.731554
 20
8.818665
 30
0.0
 10
58.535079
 20
8.221123
 30
0.0
 10
57.137111
 20
7.727804
 30
0.0
 10
54.376839
 20
7.196038
 30
0.0
 10
53.334615
 20
7.228462
 30
0.0
 10
52.730586
 20
7.506389
 30
0.0
 10
52.549007
 20
7.896413
 30
0.0
 10
52.656472
 20
8.204448
 30
0.0
 10
53.409652
 20
8.695914
 30
0.0
 10
54.331904
 20
9.220732
 30
0.0
 10
54.650598
 20
9.570456
 30
0.0
 10
54.764545
 20
10.018381
 30
0.0
 10
54.626507
 20
10.450093
 30
0.0
 10
54.296237
 20
10.759981
 30
0.0
 10
53.376302
 20
11.189841
 30
0.0
 10
52.639798
 20
11.660463
 30
0.0
 10
52.538816
 20
12.020841
 30
0.0
 10
52.722249
 20
12.523425
 30
0.0
 10
53.312379
 20
12.896310
 30
0.0
 10
54.335612
 20
12.972276
 30
0.0
  0
LWPOLYLINE
  5
103
100
AcDbEntity
  8
body
 62
7
100
AcDbPolyline
 90
5
 70
0
 10
38.983880
 20
12.500264
 30
0.0
 10
42.594146
 20
9.998000
 30
0.0
 10
38.992683
 20
7.483228
 30
0.0
 10
35.695549
 20
9.985956
 30
0.0
 10
38.983880
 20
12.500264
 30
0.0
  0
ENDSEC
  0
SECTION
  2
OBJECTS
  0
DICTIONARY
  5
C
330
0
100
AcDbDictionary
  3
ACAD_GROUP
350
D
  3
ACAD_MLINESTYLE
350
17
  0
DICTIONARY
  5
D
330
C
100
AcDbDictionary
  0
DICTIONARY
  5
1A
330
C
100
AcDbDictionary
  0
DICTIONARY
  5
17
330
C
100
AcDbDictionary
  3
STANDARD
350
18
  0
DICTIONARY
  5
19
330
C
100
AcDbDictionary
  0
ENDSEC
  0
EOF
