  0
SECTION
  2
HEADER
  9
$ACADVER
  1
AC1014
  9
$HANDSEED
  5
FFFF
  9
$MEASUREMENT
 70
     1
  0
ENDSEC
  0
SECTION
  2
TABLES
  0
TABLE
  2
VPORT
  5
8
330
0
100
AcDbSymbolTable
 70
     4
  0
VPORT
  5
2E
330
8
100
AcDbSymbolTableRecord
100
AcDbViewportTableRecord
  2
*ACTIVE
 70
     0
 10
0.0
 20
0.0
 11
1.0
 21
1.0
 12
210.0
 22
148.5
 13
0.0
 23
0.0
 14
10.0
 24
10.0
 15
10.0
 25
10.0
 16
0.0
 26
0.0
 36
1.0
 17
0.0
 27
0.0
 37
0.0
 40
341.0
 41
1.24
 42
50.0
 43
0.0
 44
0.0
 50
0.0
 51
0.0
 71
     0
 72
   100
 73
     1
 74
     3
 75
     0
 76
     0
 77
     0
 78
     0
  0
ENDTAB
  0
TABLE
  2
LTYPE
  5
5
330
0
100
AcDbSymbolTable
 70
     1
  0
LTYPE
  5
14
330
5
100
AcDbSymbolTableRecord
100
AcDbLinetypeTableRecord
  2
BYBLOCK
 70
     0
  3

 72
    65
 73
     0
 40
0.0
  0
LTYPE
  5
15
330
5
100
AcDbSymbolTableRecord
100
AcDbLinetypeTableRecord
  2
BYLAYER
 70
     0
  3

 72
    65
 73
     0
 40
0.0
  0
LTYPE
  5
16
330
5
100
AcDbSymbolTableRecord
100
AcDbLinetypeTableRecord
  2
CONTINUOUS
 70
     0
  3
Solid line
 72
    65
 73
     0
 40
0.0
  0
ENDTAB
  0
TABLE
  2
LAYER
  5
2
100
AcDbSymbolTable
 70
7
  0
LAYER
  5
50
100
AcDbSymbolTableRecord
100
AcDbLayerTableRecord
  2
0
 70
0
  6
CONTINUOUS
  0
LAYER
  5
51
100
AcDbSymbolTableRecord
100
AcDbLayerTableRecord
  2
hole3
 70
0
  6
CONTINUOUS
  0
LAYER
  5
52
100
AcDbSymbolTableRecord
100
AcDbLayerTableRecord
  2
hole2
 70
0
  6
CONTINUOUS
  0
LAYER
  5
53
100
AcDbSymbolTableRecord
100
AcDbLayerTableRecord
  2
hole1
 70
0
  6
CONTINUOUS
  0
LAYER
  5
54
100
AcDbSymbolTableRecord
100
AcDbLayerTableRecord
  2
body
 70
0
  6
CONTINUOUS
  0
LAYER
  5
55
100
AcDbSymbolTableRecord
100
AcDbLayerTableRecord
  2
base
 70
0
  6
CONTINUOUS
  0
LAYER
  5
56
100
AcDbSymbolTableRecord
100
AcDbLayerTableRecord
  2
arm
 70
0
  6
CONTINUOUS
  0
ENDTAB
  0
TABLE
  2
STYLE
  5
3
330
0
100
AcDbSymbolTable
 70
     1
  0
STYLE
  5
11
330
3
100
AcDbSymbolTableRecord
100
AcDbTextStyleTableRecord
  2
STANDARD
 70
     0
 40
0.0
 41
1.0
 50
0.0
 71
     0
 42
2.5
  3
txt
  4

  0
ENDTAB
  0
TABLE
  2
VIEW
  5
6
330
0
100
AcDbSymbolTable
 70
     0
  0
ENDTAB
  0
TABLE
  2
UCS
  5
7
330
0
100
AcDbSymbolTable
 70
     0
  0
ENDTAB
  0
TABLE
  2
APPID
  5
9
330
0
100
AcDbSymbolTable
 70
     2
  0
APPID
  5
12
330
9
100
AcDbSymbolTableRecord
100
AcDbRegAppTableRecord
  2
ACAD
 70
     0
  0
ENDTAB
  0
TABLE
  2
DIMSTYLE
  5
A
330
0
100
AcDbSymbolTable
 70
     1
  0
DIMSTYLE
105
27
330
A
100
AcDbSymbolTableRecord
100
AcDbDimStyleTableRecord
  2
ISO-25
 70
     0
  3

  4

  5

  6

  7

 40
1.0
 41
2.5
 42
0.625
 43
3.75
 44
1.25
 45
0.0
 46
0.0
 47
0.0
 48
0.0
140
2.5
141
2.5
142
0.0
143
0.03937007874016
144
1.0
145
0.0
146
1.0
147
0.625
 71
     0
 72
     0
 73
     0
 74
     0
 75
     0
 76
     0
 77
     1
 78
     8
170
     0
171
     3
172
     1
173
     0
174
     0
175
     0
176
     0
177
     0
178
     0
270
     2
271
     2
272
     2
273
     2
274
     3
340
11
275
     0
280
     0
281
     0
282
     0
283
     0
284
     8
285
     0
286
     0
287
     3
288
     0
  0
ENDTAB
  0
TABLE
  2
BLOCK_RECORD
  5
1
330
0
100
AcDbSymbolTable
 70
     1
  0
BLOCK_RECORD
  5
1F
330
1
100
AcDbSymbolTableRecord
100
AcDbBlockTableRecord
  2
*MODEL_SPACE
  0
BLOCK_RECORD
  5
1B
330
1
100
AcDbSymbolTableRecord
100
AcDbBlockTableRecord
  2
*PAPER_SPACE
  0
ENDTAB
  0
ENDSEC
  0
SECTION
  2
BLOCKS
  0
BLOCK
  5
20
330
1F
100
AcDbEntity
  8
0
100
AcDbBlockBegin
  2
*MODEL_SPACE
 70
     0
 10
0.0
 20
0.0
 30
0.0
  3
*MODEL_SPACE
  1

  0
ENDBLK
  5
21
330
1F
100
AcDbEntity
  8
0
100
AcDbBlockEnd
  0
BLOCK
  5
1C
330
1B
100
AcDbEntity
 67
     1
  8
0
100
AcDbBlockBegin
  2
*PAPER_SPACE
  1

  0
ENDBLK
  5
1D
330
1B
100
AcDbEntity
 67
     1
  8
0
100
AcDbBlockEnd
  0
ENDSEC
  0
SECTION
  2
ENTITIES
  0
LWPOLYLINE
  5
100
100
AcDbEntity
  8
body
 62
7
100
AcDbPolyline
 90
132
 70
1
 10
121.421562
 20
11.384254
 30
0.0
 10
116.145725
 20
11.310538
 30
0.0
 10
110.558941
 20
11.372287
 30
0.0
 10
103.902256
 20
11.636569
 30
0.0
 10
96.847674
 20
12.205982
 30
0.0
 10
90.067206
 20
13.183120
 30
0.0
 10
86.989768
 20
13.856649
 30
0.0
 10
84.232857
 20
14.670582
 30
0.0
 10
81.880479
 20
15.637745
 30
0.0
 10
80.016635
 20
16.770963
 30
0.0
 10
77.873964
 20
14.653274
 30
0.0
 10
76.062024
 20
13.170029
 30
0.0
 10
74.469944
 20
12.389601
 30
0.0
 10
72.986841
 20
12.380367
 30
0.0
 10
72.255160
 20
13.802739
 30
0.0
 10
71.344347
 20
15.283024
 30
0.0
 10
70.812674
 20
15.648311
 30
0.0
 10
70.225308
 20
15.552188
 30
0.0
 10
69.578612
 20
14.836026
 30
0.0
 10
68.868950
 20
13.341196
 30
0.0
 10
67.980611
 20
13.401593
 30
0.0
 10
66.976049
 20
13.785601
 30
0.0
 10
64.531153
 20
14.891699
 30
0.0
 10
63.047276
 20
15.297411
 30
0.0
 10
61.360078
 20
15.393981
 30
0.0
 10
59.447788
 20
15.023220
 30
0.0
 10
57.288633
 20
14.026940
 30
0.0
 10
56.282057
 20
14.903763
 30
0.0
 10
55.203107
 20
16.419680
 30
0.0
 10
52.424937
 20
15.223090
 30
0.0
 10
50.183065
 20
14.646382
 30
0.0
 10
48.140027
 20
14.454463
 30
0.0
 10
47.790182
 20
15.505404
 30
0.0
 10
47.334768
 20
16.471048
 30
0.0
 10
46.676262
 20
17.420778
 30
0.0
 10
45.802595
 20
18.122572
 30
0.0
 10
44.701691
 20
18.344408
 30
0.0
 10
43.361483
 20
17.854264
 30
0.0
 10
41.769894
 20
16.420117
 30
0.0
 10
40.851743
 20
17.233608
 30
0.0
 10
39.318669
 20
18.290045
 30
0.0
 10
37.298421
 20
19.285515
 30
0.0
 10
34.918752
 20
19.916107
 30
0.0
 10
33.634056
 20
19.999602
 30
0.0
 10
32.307409
 20
19.877911
 30
0.0
 10
30.954782
 20
19.513045
 30
0.0
 10
29.592146
 20
18.867016
 30
0.0
 10
28.235464
 20
17.901833
 30
0.0
 10
26.900709
 20
16.579509
 30
0.0
 10
25.603848
 20
14.862054
 30
0.0
 10
24.388518
 20
12.894258
 30
0.0
 10
23.476717
 20
13.342646
 30
0.0
 10
20.133252
 20
13.906722
 30
0.0
 10
12.865927
 20
14.436563
 30
0.0
 10
11.682975
 20
15.657453
 30
0.0
 10
10.286590
 20
16.559062
 30
0.0
 10
8.744448
 20
17.119200
 30
0.0
 10
7.124226
 20
17.315677
 30
0.0
 10
5.686828
 20
17.168160
 30
0.0
 10
4.348241
 20
16.749850
 30
0.0
 10
3.137183
 20
16.089565
 30
0.0
 10
2.082374
 20
15.216124
 30
0.0
 10
1.212533
 20
14.158344
 30
0.0
 10
0.556379
 20
12.945042
 30
0.0
 10
0.142632
 20
11.605036
 30
0.0
 10
0.000011
 20
10.167145
 30
0.0
 10
0.147540
 20
8.729747
 30
0.0
 10
0.565855
 20
7.391159
 30
0.0
 10
1.226141
 20
6.180100
 30
0.0
 10
2.099579
 20
5.125289
 30
0.0
 10
3.157355
 20
4.255447
 30
0.0
 10
4.370651
 20
3.599294
 30
0.0
 10
5.710652
 20
3.185548
 30
0.0
 10
7.148542
 20
3.042930
 30
0.0
 10
8.746331
 20
3.242913
 30
0.0
 10
10.230598
 20
3.769336
 30
0.0
 10
11.553097
 20
4.589281
 30
0.0
 10
12.665586
 20
5.669830
 30
0.0
 10
20.345212
 20
6.399308
 30
0.0
 10
23.718568
 20
6.890408
 30
0.0
 10
24.370149
 20
7.254254
 30
0.0
 10
25.620466
 20
5.107995
 30
0.0
 10
26.923171
 20
3.395155
 30
0.0
 10
28.262422
 20
2.077675
 30
0.0
 10
29.622383
 20
1.117495
 30
0.0
 10
30.987215
 20
0.476554
 30
0.0
 10
32.341075
 20
0.116791
 30
0.0
 10
33.668126
 20
0.000148
 30
0.0
 10
34.952531
 20
0.088564
 30
0.0
 10
37.330036
 20
0.728332
 30
0.0
 10
39.346878
 20
1.731613
 30
0.0
 10
40.876344
 20
2.793926
 30
0.0
 10
41.791718
 20
3.610791
 30
0.0
 10
43.388184
 20
2.182077
 30
0.0
 10
44.730055
 20
1.696503
 30
0.0
 10
45.830194
 20
1.922088
 30
0.0
 10
46.701467
 20
2.626854
 30
0.0
 10
47.356731
 20
3.578821
 30
0.0
 10
47.808854
 20
4.546010
 30
0.0
 10
48.155115
 20
5.598137
 30
0.0
 10
50.198793
 20
5.413178
 30
0.0
 10
52.442618
 20
4.844113
 30
0.0
 10
55.224852
 20
3.656996
 30
0.0
 10
56.298626
 20
5.176584
 30
0.0
 10
57.302211
 20
6.056829
 30
0.0
 10
59.464747
 20
5.067913
 30
0.0
 10
61.378290
 20
4.703671
 30
0.0
 10
63.065146
 20
4.805989
 30
0.0
 10
64.547634
 20
5.216754
 30
0.0
 10
66.988749
 20
6.331175
 30
0.0
 10
67.991998
 20
6.718603
 30
0.0
 10
68.880126
 20
6.782026
 30
0.0
 10
69.594877
 20
5.289624
 30
0.0
 10
70.244008
 20
4.575670
 30
0.0
 10
70.831696
 20
4.481549
 30
0.0
 10
71.362121
 20
4.848645
 30
0.0
 10
72.267885
 20
6.332024
 30
0.0
 10
72.994712
 20
7.756880
 30
0.0
 10
74.477840
 20
7.752700
 30
0.0
 10
76.072571
 20
6.977702
 30
0.0
 10
77.889549
 20
5.500640
 30
0.0
 10
80.039422
 20
3.390267
 30
0.0
 10
81.899396
 20
4.529828
 30
0.0
 10
84.248464
 20
5.505000
 30
0.0
 10
87.002583
 20
6.328322
 30
0.0
 10
90.077711
 20
7.012332
 30
0.0
 10
96.854812
 20
8.012566
 30
0.0
 10
103.907409
 20
8.606011
 30
0.0
 10
110.563155
 20
8.892972
 30
0.0
 10
116.149696
 20
8.973755
 30
0.0
 10
121.425753
 20
8.918014
 30
0.0
 10
121.421562
 20
11.384254
 30
0.0
  0
ENDSEC
  0
SECTION
  2
OBJECTS
  0
DICTIONARY
  5
C
330
0
100
AcDbDictionary
  3
ACAD_GROUP
350
D
  3
ACAD_MLINESTYLE
350
17
  0
DICTIONARY
  5
D
330
C
100
AcDbDictionary
  0
DICTIONARY
  5
1A
330
C
100
AcDbDictionary
  0
DICTIONARY
  5
17
330
C
100
AcDbDictionary
  3
STANDARD
350
18
  0
DICTIONARY
  5
19
330
C
100
AcDbDictionary
  0
ENDSEC
  0
EOF
