<svg xmlns="http://www.w3.org/2000/svg" xmlns:xlink="http://www.w3.org/1999/xlink" version="1.1" x="0px" y="0px" viewBox="0 0 48 60" enable-background="new 0 0 48 48" xml:space="preserve"><g><g><path d="M46.099,16.38c-2.163-2.546-5.59-4.686-8.716-3.058c-1.326,0.689-2.498,2.382-3.071,3.754    c-0.157,0.376-0.243,0.895-0.342,1.496c-0.114,0.685-0.35,2.111-0.722,2.357c-0.01,0.004-0.034,0.021-0.134-0.002    c-0.149-0.037-0.416-0.64-0.559-0.963c-0.374-0.844-0.886-2.001-2.142-2.353c-1.213-0.339-2.224-0.243-3.001,0.287    c-0.519,0.353-1.169,1.079-1.317,2.53c-0.137,1.326,0.33,2.786,0.825,4.332c0.667,2.089,1.291,4.061,0.304,5.263l10.957,8.071    c0.143-0.069,0.27-0.175,0.361-0.319c0.999-1.57,2.259-2.859,3.592-4.228c1.439-1.475,2.928-2.999,4.049-4.899    C48.288,25.078,48.936,19.718,46.099,16.38z"/><path d="M38.739,41.368c-0.109-0.716-0.487-1.344-1.066-1.771l-0.33-0.242l-10.958-8.071l-0.091-0.068    c-1.156-0.848-2.928-0.577-3.778,0.574l-2.182,2.965c-0.882,1.198-0.625,2.893,0.574,3.777l11.378,8.38    c0.466,0.344,1.019,0.523,1.599,0.523c0.857,0,1.672-0.408,2.178-1.096l2.183-2.963C38.672,42.797,38.848,42.083,38.739,41.368z"/></g><g><path d="M2.789,3.317c2.497-2.222,6.187-3.864,9.057-1.818c1.217,0.868,2.143,2.707,2.52,4.146    c0.103,0.395,0.116,0.919,0.131,1.528c0.018,0.694,0.052,2.14,0.387,2.436c0.008,0.005,0.031,0.024,0.132,0.015    c0.153-0.016,0.501-0.575,0.688-0.876c0.488-0.784,1.156-1.858,2.448-2.032c1.249-0.168,2.236,0.068,2.931,0.702    c0.465,0.422,1.008,1.231,0.954,2.688c-0.049,1.333-0.714,2.714-1.419,4.176c-0.951,1.976-1.842,3.842-1.032,5.17L7.61,25.922    c-0.131-0.091-0.243-0.213-0.313-0.368c-0.771-1.694-1.84-3.146-2.969-4.685C3.107,19.208,1.845,17.492,1,15.454    C-0.589,11.625-0.485,6.227,2.789,3.317z"/><path d="M6.603,29.083c0.208-0.692,0.67-1.261,1.302-1.604l0.361-0.194l11.973-6.471l0.1-0.053c1.263-0.68,2.98-0.165,3.661,1.093    l1.749,3.238c0.707,1.31,0.216,2.953-1.094,3.66l-12.433,6.719c-0.508,0.273-1.081,0.377-1.655,0.297    c-0.849-0.121-1.598-0.639-2.004-1.389l-1.75-3.238C6.471,30.507,6.396,29.777,6.603,29.083z"/></g></g><text x="0" y="63" fill="#000000" font-size="5px" font-weight="bold" font-family="'Helvetica Neue', Helvetica, Arial-Unicode, Arial, Sans-serif">Created by Creative Stall</text><text x="0" y="68" fill="#000000" font-size="5px" font-weight="bold" font-family="'Helvetica Neue', Helvetica, Arial-Unicode, Arial, Sans-serif">from the Noun Project</text></svg>