<svg xmlns="http://www.w3.org/2000/svg" xmlns:xlink="http://www.w3.org/1999/xlink" xmlns:sketch="http://www.bohemiancoding.com/sketch/ns" viewBox="0 0 40 50" version="1.1" x="0px" y="0px"><title>sweater_hat_winter_accessory_cloth_fashion</title><desc>Created with Sketch.</desc><g stroke="none" stroke-width="1" fill="none" fill-rule="evenodd" sketch:type="MSPage"><path d="M6,24 C6,24 6.00000033,10 20,10 C33.9999997,10 34,24 34,24 L34,28 L6,28 L6,24 Z M5.50050592,29 L34.4994941,29 C35.3282006,29 36,29.6683155 36,30.5047388 L36,34.4952612 C36,35.3263055 35.3316345,36 34.4994941,36 L5.50050592,36 C4.67179939,36 4,35.3316845 4,34.4952612 L4,30.5047388 C4,29.6736945 4.66836548,29 5.50050592,29 Z M23.7636393,9.35784222 C23.9166164,8.93389682 24,8.47668605 24,8 C24,5.790861 22.209139,4 20,4 C17.790861,4 16,5.790861 16,8 C16,8.47668605 16.0833836,8.93389682 16.2363607,9.35784222 C17.3966198,9.12223478 18.6502234,9 20,9 C21.3497766,9 22.6033802,9.12223478 23.7636393,9.35784222 L23.7636393,9.35784222 Z" fill="#000000" sketch:type="MSShapeGroup"/></g><text x="0" y="55" fill="#000000" font-size="5px" font-weight="bold" font-family="'Helvetica Neue', Helvetica, Arial-Unicode, Arial, Sans-serif">Created by Pham Thi Dieu Linh</text><text x="0" y="60" fill="#000000" font-size="5px" font-weight="bold" font-family="'Helvetica Neue', Helvetica, Arial-Unicode, Arial, Sans-serif">from the Noun Project</text></svg>