<svg xmlns="http://www.w3.org/2000/svg" xmlns:xlink="http://www.w3.org/1999/xlink" version="1.1" x="0px" y="0px" viewBox="0 0 48 60" enable-background="new 0 0 48 48" xml:space="preserve"><g><path fill="#000000" d="M29.1,7.5c-0.6-0.6-2-1.5-5.1-1.5c-3.2,0-4.6,0.9-5.1,1.5c2.3,1.4,4.1,3.4,5.1,4.8   C25,10.9,26.8,8.8,29.1,7.5z"/><path fill="#000000" d="M24,3.7c5.4,0,7.1,2.3,7.6,3.4l3.3-1.4c0,0-2.1-5.2-10.8-5.2c-8.7,0-10.8,5.2-10.8,5.2l3.3,1.4   C16.9,6,18.6,3.7,24,3.7z"/><path fill="#000000" d="M22.9,47.5V14.6c-0.6-0.9-2.8-4.2-6-5.6c-0.2-0.1-0.3-0.2-0.4-0.3l-9.6,3.6L0.5,41.4l1.1,4.2L6.3,46   l1.8-4.1L12.3,25v22.5H22.9z M15,35.4h5.5v2.2H15V35.4z"/><path fill="#000000" d="M41.1,12.2l-9.6-3.6c-0.1,0.1-0.2,0.3-0.4,0.3c-3.2,1.4-5.4,4.7-6,5.6v32.9h10.6V25l4.1,16.9l1.8,4.1   l4.7-0.4l1.1-4.2L41.1,12.2z M33,37.7h-5.5v-2.2H33V37.7z"/></g><text x="0" y="63" fill="#000000" font-size="5px" font-weight="bold" font-family="'Helvetica Neue', Helvetica, Arial-Unicode, Arial, Sans-serif">Created by Creative Stall</text><text x="0" y="68" fill="#000000" font-size="5px" font-weight="bold" font-family="'Helvetica Neue', Helvetica, Arial-Unicode, Arial, Sans-serif">from the Noun Project</text></svg>