<svg xmlns="http://www.w3.org/2000/svg" xmlns:xlink="http://www.w3.org/1999/xlink" version="1.1" x="0px" y="0px" viewBox="0 0 100 125" enable-background="new 0 0 100 100" xml:space="preserve"><path d="M40,35.3V30c0-9.6-7.9-17.5-17.5-17.5S5,20.4,5,30v57.5h42.5V45C47.5,40.4,44.3,36.4,40,35.3z M12.5,82.5H10v-5h2.5V82.5z   M20,82.5h-2.5v-5H20V82.5z M27.5,82.5H25v-5h2.5V82.5z M35,82.5h-2.5v-5H35V82.5z M42.5,82.5H40v-5h2.5V82.5z M42.5,72.5H10V30  c0-6.9,5.6-12.5,12.5-12.5S35,23.1,35,30v5.3c-4.3,1.1-7.5,5-7.5,9.7v15h5V45c0-2.8,2.2-5,5-5s5,2.2,5,5V72.5z"/><path d="M77.5,12.5C67.9,12.5,60,20.4,60,30v5.3c-4.3,1.1-7.5,5-7.5,9.7v42.5H95V30C95,20.4,87.1,12.5,77.5,12.5z M60,82.5h-2.5v-5  H60V82.5z M67.5,82.5H65v-5h2.5V82.5z M75,82.5h-2.5v-5H75V82.5z M82.5,82.5H80v-5h2.5V82.5z M90,82.5h-2.5v-5H90V82.5z M90,72.5  H57.5V45c0-2.8,2.2-5,5-5s5,2.2,5,5v15h5V45c0-4.6-3.2-8.6-7.5-9.7V30c0-6.9,5.6-12.5,12.5-12.5S90,23.1,90,30V72.5z"/><text x="0" y="115" fill="#000000" font-size="5px" font-weight="bold" font-family="'Helvetica Neue', Helvetica, Arial-Unicode, Arial, Sans-serif">Created by Arthur Shlain</text><text x="0" y="120" fill="#000000" font-size="5px" font-weight="bold" font-family="'Helvetica Neue', Helvetica, Arial-Unicode, Arial, Sans-serif">from the Noun Project</text></svg>