<svg xmlns="http://www.w3.org/2000/svg" xmlns:xlink="http://www.w3.org/1999/xlink" version="1.1" x="0px" y="0px" viewBox="0 0 100 125" enable-background="new 0 0 100 100" xml:space="preserve"><g><path d="M72.5,5H60c-1.4,0-2.5,1.1-2.5,2.5c0,0.4,0,0.8-0.1,1.1C56,9.3,53.5,10,50,10s-6-0.7-7.4-1.4c-0.1-0.4-0.1-0.8-0.1-1.1   C42.5,6.1,41.4,5,40,5H27.5C15.1,5,5,15.1,5,27.5v60C5,88.9,6.1,90,7.5,90h15v2.5c0,1.4,1.1,2.5,2.5,2.5h50c1.4,0,2.5-1.1,2.5-2.5   V90h15c1.4,0,2.5-1.1,2.5-2.5v-60C95,15.1,84.9,5,72.5,5z M50,12.5c2.2,0,4.3-0.3,6.2-0.8c-1.4,2-3.6,3.3-6.2,3.3s-4.8-1.3-6.2-3.3   C45.7,12.2,47.8,12.5,50,12.5z M90,85H77.5V35c0-1.4-1.1-2.5-2.5-2.5s-2.5,1.1-2.5,2.5v55h-45V35c0-1.4-1.1-2.5-2.5-2.5   s-2.5,1.1-2.5,2.5v50H10V27.5C10,17.9,17.9,10,27.5,10h10.3C38.9,15.7,44,20,50,20s11.1-4.3,12.2-10h10.3C82.1,10,90,17.9,90,27.5   V85z"/></g><text x="0" y="115" fill="#000000" font-size="5px" font-weight="bold" font-family="'Helvetica Neue', Helvetica, Arial-Unicode, Arial, Sans-serif">Created by Arthur Shlain</text><text x="0" y="120" fill="#000000" font-size="5px" font-weight="bold" font-family="'Helvetica Neue', Helvetica, Arial-Unicode, Arial, Sans-serif">from the Noun Project</text></svg>