<svg xmlns="http://www.w3.org/2000/svg" xmlns:xlink="http://www.w3.org/1999/xlink" version="1.1" x="0px" y="0px" viewBox="0 0 100 125" enable-background="new 0 0 100 100" xml:space="preserve"><path d="M97.722,72.427L97.87,69.3c2.577-22.588-9.093-44.177-29.285-54.437l0.644-1.381c0.437-0.935,0.031-2.05-0.904-2.486  s-2.05-0.029-2.486,0.905l-0.644,1.38C44.724,4.568,21.167,9.176,5.508,24.976c-0.012,0-3.149,2.959-3.149,2.959  c-0.75,0.712-0.778,1.896-0.071,2.645c0.17,0.179,0.36,0.315,0.569,0.413c0.673,0.314,1.502,0.205,2.081-0.339l1.002-0.948  l24.846,11.586l-0.441,0.945c-0.438,0.939-0.03,2.05,0.905,2.486c0.94,0.438,2.048,0.034,2.486-0.905l0.44-0.944l14.145,6.596  L32.524,83.343c-1.672,3.585-5.717,4.736-8.309,3.527c-1.042-0.485-1.712-1.288-1.993-2.38c-0.365-1.444-0.031-3.347,0.972-5.499  c0.438-0.938,0.035-2.047-0.905-2.485c-0.936-0.436-2.048-0.034-2.486,0.905c-1.391,2.984-1.798,5.679-1.202,8.003  c0.554,2.176,1.988,3.894,4.032,4.847c4.282,1.997,10.641,0.326,13.281-5.337l15.797-33.875l14.436,6.732l-0.44,0.943  c-0.438,0.939-0.03,2.051,0.905,2.486c0.939,0.438,2.047,0.035,2.485-0.905l0.44-0.944l24.517,11.433l-0.065,1.455  c-0.041,0.784,0.408,1.477,1.076,1.789c0.214,0.099,0.452,0.157,0.701,0.167C96.798,74.255,97.679,73.457,97.722,72.427z   M32.288,37.864L8.843,26.931C22.476,13.691,42.211,9.299,60.059,15.329c-1.79,0.386-3.805,0.961-5.949,1.807  C47.582,19.712,38.621,25.395,32.288,37.864z M35.684,39.447c8.953-17.556,23.211-20.598,29.107-21.087  c0.035-0.001,0.074-0.006,0.11-0.007c0.019,0.032,0.036,0.058,0.059,0.086c3.416,4.83,10.245,17.705,2.551,35.849L35.684,39.447z   M70.906,55.871c5.48-12.866,4.074-23.382,1.853-30.039c-0.73-2.187-1.586-4.1-2.44-5.719c16.091,9.797,25.411,27.738,24.033,46.691  L70.906,55.871z"/><text x="0" y="115" fill="#000000" font-size="5px" font-weight="bold" font-family="'Helvetica Neue', Helvetica, Arial-Unicode, Arial, Sans-serif">Created by Nina Sandgaard Rasmussen</text><text x="0" y="120" fill="#000000" font-size="5px" font-weight="bold" font-family="'Helvetica Neue', Helvetica, Arial-Unicode, Arial, Sans-serif">from the Noun Project</text></svg>