<svg xmlns="http://www.w3.org/2000/svg" xmlns:xlink="http://www.w3.org/1999/xlink" version="1.1" x="0px" y="0px" viewBox="0 0 48 60" enable-background="new 0 0 48 48" xml:space="preserve"><g><g><line fill="none" stroke="#000000" stroke-width="2" stroke-linecap="round" stroke-linejoin="round" stroke-miterlimit="10" x1="15.189" y1="36.291" x2="20.565" y2="36.291"/><path fill="none" stroke="#000000" stroke-width="2" stroke-linecap="round" stroke-linejoin="round" stroke-miterlimit="10" d="    M40.727,12.439l-11.2-4.167l5.076-2.16C34.603,6.112,32.514,1,24,1S13.397,6.112,13.397,6.112l5.076,2.16L7.272,12.439L1,41.037    l1.047,4.139l4.628,0.365l1.793-4.016L12.5,24.975V47H24h11.5V24.975l4.031,16.551l1.794,4.016l4.628-0.365L47,41.037    L40.727,12.439z"/><line fill="none" stroke="#000000" stroke-width="2" stroke-linecap="round" stroke-linejoin="round" stroke-miterlimit="10" x1="32.812" y1="36.291" x2="27.434" y2="36.291"/><g><path fill="none" stroke="#000000" stroke-width="2" stroke-linecap="round" stroke-linejoin="round" stroke-miterlimit="10" d="     M23.999,14.474c0,0-1.995-4.431-5.094-6.201c0,0,0.405-3.034,5.094-3.034"/><path fill="none" stroke="#000000" stroke-width="2" stroke-linecap="round" stroke-linejoin="round" stroke-miterlimit="10" d="     M24.001,14.474c0,0,1.994-4.431,5.094-6.201c0,0-0.405-3.034-5.094-3.034"/></g></g><line fill="none" stroke="#000000" stroke-width="2" stroke-linecap="round" stroke-linejoin="round" stroke-miterlimit="10" x1="23.999" y1="15.272" x2="23.999" y2="46.07"/></g><text x="0" y="63" fill="#000000" font-size="5px" font-weight="bold" font-family="'Helvetica Neue', Helvetica, Arial-Unicode, Arial, Sans-serif">Created by Creative Stall</text><text x="0" y="68" fill="#000000" font-size="5px" font-weight="bold" font-family="'Helvetica Neue', Helvetica, Arial-Unicode, Arial, Sans-serif">from the Noun Project</text></svg>