<svg xmlns="http://www.w3.org/2000/svg" xmlns:xlink="http://www.w3.org/1999/xlink" version="1.1" x="0px" y="0px" viewBox="0 0 100 125" enable-background="new 0 0 100 100" xml:space="preserve"><path fill="#000000" d="M94.037,21.894c-3.211-1.149-17.305-6.922-17.447-6.98c-0.036-0.015-0.074-0.028-0.111-0.041L60.777,9.901  c-0.424-0.135-0.885-0.067-1.252,0.183c-0.034,0.022-3.432,2.278-9.527,2.278c-6.025,0-9.504-2.261-9.533-2.279  c-0.368-0.249-0.83-0.315-1.252-0.182l-15.699,4.971c-0.038,0.013-0.075,0.026-0.112,0.041c-0.142,0.059-14.234,5.831-17.44,6.98  c-0.706,0.253-1.103,1-0.917,1.726L8.698,37.9c0.162,0.634,0.728,1.081,1.383,1.092c3.152,0.051,10.218,0.15,13.255,0.192v49.531  c0,0.802,0.649,1.451,1.452,1.451h50.422c0.802,0,1.451-0.649,1.451-1.451V39.185c3.037-0.042,10.104-0.142,13.256-0.192  c0.653-0.011,1.22-0.458,1.382-1.092l3.657-14.28C95.141,22.894,94.742,22.146,94.037,21.894z M39.475,12.864  c1.401,0.762,5.053,2.401,10.524,2.401c5.472,0,9.119-1.639,10.519-2.401l0.498,0.158c-1.334,5.013-5.682,8.409-11.001,8.409  c-0.014-0.001-0.025-0.001-0.037,0c-5.317,0-9.666-3.397-11-8.41L39.475,12.864z M8.181,24.163  c3.763-1.441,11.975-4.786,15.099-6.062c0.962,1.775,2.42,4.654,2.42,9.476c0,4.325-1.135,7.368-1.757,8.714  c-2.355-0.033-8.963-0.125-12.707-0.184L8.181,24.163z M26.238,87.264V38.198c0.639-1.193,2.365-4.943,2.365-10.622  c0-5.172-1.51-8.483-2.557-10.46l10.164-3.219c1.707,6.226,7.134,10.437,13.763,10.437c0.015,0,0.03,0,0.046,0  c6.631,0,12.057-4.211,13.764-10.436l10.164,3.218c-1.045,1.978-2.555,5.289-2.555,10.46c0,5.675,1.725,9.423,2.365,10.619v49.068  H26.238z M88.76,36.106c-3.742,0.059-10.35,0.15-12.705,0.184c-0.623-1.349-1.758-4.391-1.758-8.714c0-4.82,1.455-7.7,2.417-9.476  c3.126,1.276,11.338,4.622,15.104,6.062L88.76,36.106z"/><text x="0" y="115" fill="#000000" font-size="5px" font-weight="bold" font-family="'Helvetica Neue', Helvetica, Arial-Unicode, Arial, Sans-serif">Created by Federico Panzano</text><text x="0" y="120" fill="#000000" font-size="5px" font-weight="bold" font-family="'Helvetica Neue', Helvetica, Arial-Unicode, Arial, Sans-serif">from the Noun Project</text></svg>