<svg xmlns="http://www.w3.org/2000/svg" xmlns:xlink="http://www.w3.org/1999/xlink" version="1.1" x="0px" y="0px" viewBox="0 0 100 125" enable-background="new 0 0 100 100" xml:space="preserve"><path d="M76.105,58.352c-0.648-11.981-9.398-21.843-20.854-24.188c0.983-1.183,1.576-2.702,1.576-4.356  c0-3.764-3.063-6.826-6.827-6.826c-3.763,0-6.825,3.062-6.825,6.826c0,1.655,0.593,3.173,1.575,4.356  C33.293,36.508,24.543,46.37,23.894,58.352c-2.115,0.338-3.741,2.159-3.741,4.368v9.859c0,2.448,1.992,4.439,4.44,4.439h50.813  c2.448,0,4.44-1.991,4.44-4.439V62.72C79.847,60.511,78.221,58.689,76.105,58.352z M50,25.981c2.11,0,3.827,1.716,3.827,3.826  S52.11,33.634,50,33.634c-2.109,0-3.825-1.716-3.825-3.826S47.891,25.981,50,25.981z M50,36.634c12.259,0,22.322,9.58,23.099,21.646  H26.901C27.677,46.214,37.741,36.634,50,36.634z M76.847,72.579c0,0.794-0.646,1.439-1.44,1.439H24.594  c-0.794,0-1.44-0.646-1.44-1.439V62.72c0-0.794,0.646-1.439,1.44-1.439h50.813c0.794,0,1.44,0.646,1.44,1.439V72.579z   M65.079,63.165h-8.897c-0.828,0-1.5,0.672-1.5,1.5v5.969c0,0.828,0.672,1.5,1.5,1.5h8.897c0.828,0,1.5-0.672,1.5-1.5v-5.969  C66.579,63.837,65.907,63.165,65.079,63.165z M63.579,69.134h-5.897v-2.969h5.897V69.134z M50,63.165c-0.829,0-1.5,0.672-1.5,1.5  v5.969c0,0.828,0.671,1.5,1.5,1.5c0.828,0,1.5-0.672,1.5-1.5v-5.969C51.5,63.837,50.828,63.165,50,63.165z M42.913,63.165  c-0.829,0-1.5,0.672-1.5,1.5v5.969c0,0.828,0.671,1.5,1.5,1.5s1.5-0.672,1.5-1.5v-5.969C44.413,63.837,43.742,63.165,42.913,63.165z   M35.826,63.165c-0.829,0-1.5,0.672-1.5,1.5v5.969c0,0.828,0.671,1.5,1.5,1.5s1.5-0.672,1.5-1.5v-5.969  C37.326,63.837,36.655,63.165,35.826,63.165z M71.26,63.165c-0.828,0-1.5,0.672-1.5,1.5v5.969c0,0.828,0.672,1.5,1.5,1.5  s1.5-0.672,1.5-1.5v-5.969C72.76,63.837,72.088,63.165,71.26,63.165z M28.74,63.165c-0.829,0-1.5,0.672-1.5,1.5v5.969  c0,0.828,0.671,1.5,1.5,1.5s1.5-0.672,1.5-1.5v-5.969C30.24,63.837,29.569,63.165,28.74,63.165z"/><text x="0" y="115" fill="#000000" font-size="5px" font-weight="bold" font-family="'Helvetica Neue', Helvetica, Arial-Unicode, Arial, Sans-serif">Created by Sergey Demushkin</text><text x="0" y="120" fill="#000000" font-size="5px" font-weight="bold" font-family="'Helvetica Neue', Helvetica, Arial-Unicode, Arial, Sans-serif">from the Noun Project</text></svg>