<svg xmlns="http://www.w3.org/2000/svg" xmlns:xlink="http://www.w3.org/1999/xlink" version="1.1" x="0px" y="0px" viewBox="0 0 48 60" enable-background="new 0 0 48 48" xml:space="preserve"><g><line fill="none" stroke="#000000" stroke-width="2" stroke-linecap="round" stroke-linejoin="round" stroke-miterlimit="10" x1="16.619" y1="1.572" x2="24" y2="27.752"/><polyline fill="none" stroke="#000000" stroke-width="2" stroke-linecap="round" stroke-linejoin="round" stroke-miterlimit="10" points="   14.273,4.262 12.5,8.748 24,28.486  "/><path fill="none" stroke="#000000" stroke-width="2" stroke-linecap="round" stroke-linejoin="round" stroke-miterlimit="10" d="   M41.738,7.76c-1.46-1.652-8.201-4.23-8.201-4.23L31.585,1H24h-7.584l-1.953,2.529c0,0-6.74,2.578-8.199,4.23   c-7.041,7.967-4.984,38.426-4.984,38.426l6.352-0.246c0,0,0.566-8.561,0.781-13.943c0.261-6.525,2.246-13.949,2.246-13.949   c1.563,7.502,0,28.953,0,28.953H24h13.342c0,0-1.563-21.451,0-28.953c0,0,1.986,7.424,2.246,13.949   c0.217,5.383,0.781,13.943,0.781,13.943l6.352,0.246C46.721,46.186,48.777,15.727,41.738,7.76z"/><line fill="none" stroke="#000000" stroke-width="2" stroke-linecap="round" stroke-linejoin="round" stroke-miterlimit="10" x1="31.382" y1="1.572" x2="24" y2="27.752"/><polyline fill="none" stroke="#000000" stroke-width="2" stroke-linecap="round" stroke-linejoin="round" stroke-miterlimit="10" points="   33.727,4.262 35.502,8.748 24,28.486 19.844,34.521 19.844,46.674  "/><line fill="none" stroke="#000000" stroke-width="2" stroke-linecap="round" stroke-linejoin="round" stroke-miterlimit="10" x1="22.773" y1="35.256" x2="22.773" y2="36.316"/><line fill="none" stroke="#000000" stroke-width="2" stroke-linecap="round" stroke-linejoin="round" stroke-miterlimit="10" x1="22.773" y1="40.068" x2="22.773" y2="41.129"/></g><text x="0" y="63" fill="#000000" font-size="5px" font-weight="bold" font-family="'Helvetica Neue', Helvetica, Arial-Unicode, Arial, Sans-serif">Created by Creative Stall</text><text x="0" y="68" fill="#000000" font-size="5px" font-weight="bold" font-family="'Helvetica Neue', Helvetica, Arial-Unicode, Arial, Sans-serif">from the Noun Project</text></svg>