<svg xmlns="http://www.w3.org/2000/svg" xmlns:xlink="http://www.w3.org/1999/xlink" version="1.1" x="0px" y="0px" viewBox="0 0 100 125" enable-background="new 0 0 100 100" xml:space="preserve"><g><path fill="#000000" d="M49.963,10c-0.075,0-0.075,0-0.152,0c-20.318,0.15-36.813,16.569-36.813,36.814   c0,0.524,0.45,0.975,0.976,0.975h0.374c0.3,0,0.6-0.15,0.826-0.45c1.574-2.549,4.348-4.199,7.572-4.199s5.999,1.649,7.648,4.199   c0.148,0.3,0.449,0.45,0.825,0.45h1.274c0.3,0,0.6-0.15,0.825-0.45c1.575-2.549,4.35-4.199,7.574-4.199   c3.223,0,5.997,1.725,7.571,4.199c0.151,0.226,0.299,0.3,0.525,0.375v33.214c0,5.024,4.049,9.072,9.072,9.072   c5.024,0,9.072-4.048,9.072-9.072c0-1.35-2.024-1.35-2.024,0c0,3.975-3.073,7.049-7.048,7.049c-3.973,0-7.047-3.074-7.047-7.049   V47.713c0.15-0.075,0.374-0.149,0.449-0.375c1.575-2.474,4.424-4.199,7.647-4.199c3.15,0,5.998,1.649,7.574,4.199   c0.149,0.3,0.523,0.45,0.823,0.45h1.275c0.3,0,0.675-0.15,0.824-0.45c1.575-2.549,4.424-4.199,7.648-4.199s5.998,1.649,7.572,4.199   c0.15,0.3,0.524,0.45,0.825,0.45h0.3c0.599,0,1.05-0.45,1.05-0.975c0-20.245-16.496-36.664-36.814-36.814l0,0   C50.112,10,50.037,10,49.963,10L49.963,10z M45.314,12.324c-7.499,4.948-13.422,15.07-14.62,32.315   c-1.95-2.1-4.799-3.524-7.949-3.524c-2.924,0-5.548,1.2-7.498,2.999C16.522,27.695,29.119,14.499,45.314,12.324L45.314,12.324z    M54.686,12.324c16.195,2.174,28.717,15.371,29.991,31.79c-1.948-1.799-4.573-2.999-7.422-2.999c-3.225,0-6,1.425-8.022,3.524   C68.106,27.395,62.184,17.272,54.686,12.324L54.686,12.324z M48.988,12.549v32.24c-2.024-2.249-4.873-3.674-8.096-3.674   c-3.3,0-6.149,1.5-8.175,3.824C33.918,25.896,40.964,16.298,48.988,12.549L48.988,12.549z M51.013,12.549   c8.022,3.749,15.069,13.346,16.27,32.39c-2.024-2.324-4.948-3.824-8.173-3.824c-3.224,0-6.147,1.425-8.097,3.674V12.549   L51.013,12.549z"/></g><text x="0" y="115" fill="#000000" font-size="5px" font-weight="bold" font-family="'Helvetica Neue', Helvetica, Arial-Unicode, Arial, Sans-serif">Created by artworkbean</text><text x="0" y="120" fill="#000000" font-size="5px" font-weight="bold" font-family="'Helvetica Neue', Helvetica, Arial-Unicode, Arial, Sans-serif">from the Noun Project</text></svg>