<svg xmlns="http://www.w3.org/2000/svg" xmlns:xlink="http://www.w3.org/1999/xlink" version="1.1" x="0px" y="0px" viewBox="0 0 100 125" enable-background="new 0 0 100 100" xml:space="preserve"><path d="M75.965,89.963H24.039c-1.104,0-2-0.896-2-2V42.179l-1.271,1.272c-0.781,0.781-2.049,0.781-2.828,0L5.276,30.789  c-0.781-0.781-0.781-2.047,0-2.828l17.337-17.337c0.375-0.375,0.884-0.586,1.414-0.586l0,0c0.006,0,0.009,0,0.012,0h12.963  c1.104,0,2,0.896,2,2c0,6.065,4.935,11,11,11s11-4.935,11-11c0-1.104,0.896-2,2-2h12.963c0.274,0,0.536,0.055,0.773,0.155  c0.241,0.099,0.463,0.244,0.649,0.431l17.337,17.338c0.781,0.781,0.781,2.047,0,2.828L82.062,43.452  c-0.781,0.781-2.047,0.781-2.828,0l-1.269-1.268v45.779C77.965,89.067,77.069,89.963,75.965,89.963z M26.039,85.963h47.926V37.355  c0-0.809,0.487-1.538,1.234-1.848c0.749-0.31,1.607-0.139,2.18,0.434l3.269,3.268l9.835-9.834L75.146,14.037H64.869  c-0.98,7.329-7.274,13-14.867,13c-7.594,0-13.887-5.671-14.867-13H24.855L9.52,29.375l9.834,9.834l3.271-3.272  c0.572-0.572,1.434-0.743,2.18-0.434c0.748,0.31,1.234,1.039,1.234,1.848V85.963z"/><text x="0" y="115" fill="#000000" font-size="5px" font-weight="bold" font-family="'Helvetica Neue', Helvetica, Arial-Unicode, Arial, Sans-serif">Created by Ema Dimitrova</text><text x="0" y="120" fill="#000000" font-size="5px" font-weight="bold" font-family="'Helvetica Neue', Helvetica, Arial-Unicode, Arial, Sans-serif">from the Noun Project</text></svg>