<svg xmlns="http://www.w3.org/2000/svg" xmlns:xlink="http://www.w3.org/1999/xlink" version="1.1" x="0px" y="0px" viewBox="0 0 100 100" enable-background="new 0 0 100 100" xml:space="preserve"><path fill="#000000" d="M82.7,17c-4.6-4.2-16.7-6.3-18-6.5c-0.8-0.1-1.7,0.3-2.1,1c-3.3,6.2-8.7,9-12.2,9c-0.1,0-0.2,0-0.3,0  c-0.1,0-0.2,0-0.3,0c-3.6,0-8.9-2.8-12.2-9c-0.4-0.7-1.2-1.2-2.1-1c-1.4,0.2-13.5,2.3-18,6.5C1.6,31.6,3.9,77.8,9.1,84.7  c0.4,0.6,1.2,0.9,1.9,0.8l10-1.4c1.1-0.1,1.8-1.1,1.7-2.2c0-0.2-1.6-18.3-1-28.3c0.1-2.1,0.9-5.5,1.9-8.8c0.1,9.1,0.6,23.8,3.2,40.6  c0.1,0.8,0.7,1.5,1.5,1.6c0.4,0.1,10,2.4,21.4,2.4c0,0,0,0,0,0h0.1h0.1c0.1,0,0.2,0,0.2,0c0.1,0,0.2,0,0.2,0h0.1c0,0,0,0,0,0  c11.4,0,21-2.3,21.4-2.4c0.8-0.2,1.4-0.8,1.5-1.6c2.5-16.8,3.1-31.5,3.2-40.6c1,3.2,1.7,6.7,1.9,8.8c0.6,10.1-1,28.1-1,28.3  c-0.1,1.1,0.7,2,1.7,2.2l10,1.4c0.7,0.1,1.4-0.2,1.9-0.8C96.1,77.8,98.4,31.6,82.7,17z M11.8,81.3c-0.2-0.5-0.4-1.2-0.6-2  c1.6-0.2,4.4-0.7,7.2-1.4c0.1,0.9,0.1,1.8,0.2,2.4L11.8,81.3z M50.3,85.5c-0.1,0-0.2,0-0.2,0c-0.1,0-0.2,0-0.2,0h-0.1  c-8.6,0-16.3-1.4-19.2-2c-0.1-0.9-0.2-1.7-0.4-2.6c4.5,1,12.1,2.3,21,2.3c5.8,0,12.3-0.6,18.7-2.1c-0.1,0.8-0.2,1.6-0.3,2.4  C66.6,84.1,58.9,85.5,50.3,85.5z M75,33.6c-0.6-0.2-1.3-0.1-1.9,0.3c-0.5,0.4-0.8,1-0.8,1.7c0,0.2,0.9,17.8-1.9,41.2  c-17.7,4.6-35.6,1.1-40.8-0.1c-2.8-23.3-1.9-40.8-1.9-41c0-0.7-0.3-1.3-0.8-1.7c-0.5-0.4-1.2-0.5-1.9-0.3c-4,1.5-7.2,17.1-7.3,19.8  c-0.3,5.9,0,14.3,0.4,20.5c-2.9,0.8-6.2,1.3-7.7,1.5C8.2,61.3,8.3,30.8,20.1,20c2.8-2.6,10.5-4.5,14.6-5.3c4.2,6.7,10.4,9.8,15,9.8  c0.1,0,0.2,0,0.3,0c0.1,0,0.2,0,0.3,0c4.6,0,10.9-3,15-9.8c4.1,0.8,11.8,2.7,14.6,5.3c11.7,10.9,11.9,41.3,9.7,55.4  c-1.6-0.2-4.8-0.7-7.7-1.5c0.4-6.2,0.7-14.6,0.4-20.5C82.1,50.7,78.9,35.1,75,33.6z M81.4,80.4c0.1-0.7,0.1-1.5,0.2-2.4  c2.8,0.7,5.6,1.2,7.2,1.4c-0.2,0.8-0.4,1.5-0.6,2L81.4,80.4z"></path></svg>