<svg xmlns="http://www.w3.org/2000/svg" xmlns:xlink="http://www.w3.org/1999/xlink" version="1.1" x="0px" y="0px" viewBox="0 0 100 125" enable-background="new 0 0 100 100" xml:space="preserve"><path d="M78.8,13.8c-9,0-16.3,7.3-16.3,16.3v6.3C58.3,37,55,40.6,55,45v41.3h40V30C95,21,87.7,13.8,78.8,13.8z M62.5,83.8h-5v-7.5h5  V83.8z M70,83.8h-5v-7.5h5V83.8z M77.5,83.8h-5v-7.5h5V83.8z M85,83.8h-5v-7.5h5V83.8z M92.5,83.8h-5v-7.5h5V83.8z M92.5,73.8h-35  V45c0-3.4,2.8-6.3,6.3-6.3S70,41.6,70,45v15h2.5V45c0-4.4-3.3-8-7.5-8.7V30c0-7.6,6.2-13.8,13.8-13.8S92.5,22.4,92.5,30V73.8z"/><path d="M45,86.3V45c0-4.4-3.3-8-7.5-8.7V30c0-9-7.3-16.3-16.3-16.3S5,21,5,30v56.3H45z M42.5,83.8h-5v-7.5h5V83.8z M7.5,30  c0-7.6,6.2-13.8,13.8-13.8S35,22.4,35,30v6.3c-4.2,0.6-7.5,4.3-7.5,8.7v15H30V45c0-3.4,2.8-6.3,6.3-6.3s6.3,2.8,6.3,6.3v28.8h-35V30  z M12.5,83.8h-5v-7.5h5V83.8z M20,83.8h-5v-7.5h5V83.8z M27.5,83.8h-5v-7.5h5V83.8z M35,83.8h-5v-7.5h5V83.8z"/><text x="0" y="115" fill="#000000" font-size="5px" font-weight="bold" font-family="'Helvetica Neue', Helvetica, Arial-Unicode, Arial, Sans-serif">Created by Arthur Shlain</text><text x="0" y="120" fill="#000000" font-size="5px" font-weight="bold" font-family="'Helvetica Neue', Helvetica, Arial-Unicode, Arial, Sans-serif">from the Noun Project</text></svg>