<svg xmlns="http://www.w3.org/2000/svg" xmlns:xlink="http://www.w3.org/1999/xlink" viewBox="0 0 75 93.75" version="1.1" x="0px" y="0px"><g><path style="" d="M 46.109375 26.054688 C 43.285156 26.511719 40.121094 27.464844 37.257812 27.378906 C 35.539062 27.328125 33.910156 26.925781 32.371094 26.566406 C 21.984375 24.148438 14.070312 27.203125 1.75 27.34375 L 1.765625 31.488281 C 2.484375 31.503906 3.683594 31.765625 3.742188 33.144531 C 4.179688 44.242188 7.882812 49.277344 17.585938 49.285156 C 28.566406 49.296875 33.976562 38.535156 34.6875 34.574219 C 35.070312 32.445312 36.164062 32.230469 37.386719 32.195312 C 39.554688 32.140625 39.804688 33.726562 40.179688 34.683594 C 44.640625 45.957031 47.320312 48.523438 56.683594 49.335938 C 70.90625 50.578125 69.269531 40.027344 71.195312 33.898438 C 71.5625 32.726562 71.964844 32.125 73.25 32.097656 L 73.132812 27.953125 C 62.75 27.875 57.195312 24.273438 46.109375 26.054688 Z M 46.109375 26.054688 " stroke="none" fill-rule="nonzero" fill="rgb(3.921569%,4.313725%,4.705882%)" fill-opacity="1"/></g><text x="0" y="90" fill="#000000" font-size="5px" font-weight="bold" font-family="'Helvetica Neue', Helvetica, Arial-Unicode, Arial, Sans-serif">Created by Lloyd Humphreys</text><text x="0" y="95" fill="#000000" font-size="5px" font-weight="bold" font-family="'Helvetica Neue', Helvetica, Arial-Unicode, Arial, Sans-serif">from the Noun Project</text></svg>