<svg xmlns="http://www.w3.org/2000/svg" xmlns:xlink="http://www.w3.org/1999/xlink" version="1.1" x="0px" y="0px" viewBox="0 0 100 125" enable-background="new 0 0 100 100" xml:space="preserve"><g><g><g><path fill-rule="evenodd" clip-rule="evenodd" fill="#000000" d="M96.752,22.315l-15-12C80.686,9.463,79.361,9,78.002,9h-54     c-1.365,0-2.684,0.463-3.75,1.315l-15,12c-1.963,1.57-2.736,4.198-1.945,6.583l6,18c0.592,1.772,1.98,3.17,3.75,3.776     C13.689,50.892,14.346,51,15.002,51c1.043,0,2.08-0.272,3-0.803V87c0,3.313,2.684,6,6,6h54c3.311,0,6-2.687,6-6V50.197     c0.92,0.53,1.957,0.803,3,0.803c0.656,0,1.312-0.108,1.945-0.325c1.77-0.606,3.152-2.004,3.744-3.776l6-18     C99.488,26.514,98.715,23.886,96.752,22.315z M62.264,15c-1.658,3.483-6.053,6-11.262,6s-9.609-2.517-11.262-6H62.264z      M87.002,45l-9-6v48h-54V39l-9,6l-6-18l15-12h12.527c1.676,5.165,7.488,9,14.473,9c6.979,0,12.797-3.835,14.467-9h12.533l15,12     L87.002,45z"/></g></g><g><g><path fill="#000000" d="M81.002,82.5h-60c-0.832,0-1.5-0.671-1.5-1.5s0.668-1.5,1.5-1.5h60c0.826,0,1.5,0.671,1.5,1.5     S81.828,82.5,81.002,82.5z"/></g></g></g><text x="0" y="115" fill="#000000" font-size="5px" font-weight="bold" font-family="'Helvetica Neue', Helvetica, Arial-Unicode, Arial, Sans-serif">Created by Timur Zima</text><text x="0" y="120" fill="#000000" font-size="5px" font-weight="bold" font-family="'Helvetica Neue', Helvetica, Arial-Unicode, Arial, Sans-serif">from the Noun Project</text></svg>