<svg xmlns="http://www.w3.org/2000/svg" xmlns:xlink="http://www.w3.org/1999/xlink" version="1.1" x="0px" y="0px" viewBox="0 0 100 125" enable-background="new 0 0 100 100" xml:space="preserve"><path fill="#000000" d="M87.791,67.486H87.52v-3.088c0-15.55-9.492-28.921-22.982-34.617C65.439,28.876,66,27.627,66,26.25  c0-2.456-1.779-4.504-4.117-4.922c0.582-0.832,0.895-1.819,0.895-2.855c0-1.336-0.521-2.591-1.465-3.535  c-0.943-0.945-2.199-1.465-3.535-1.465c-1.035,0-2.022,0.313-2.854,0.895C54.504,12.03,52.456,10.25,50,10.25  s-4.504,1.78-4.922,4.117c-0.832-0.582-1.819-0.895-2.855-0.895c-1.335,0-2.591,0.52-3.535,1.464s-1.465,2.2-1.465,3.536  c0,1.036,0.313,2.024,0.895,2.855C35.779,21.747,34,23.794,34,26.25c0,1.377,0.561,2.626,1.464,3.531  C21.974,35.477,12.48,48.849,12.48,64.398v3.088h-0.271c-2.481,0-4.5,2.02-4.5,4.5V85.25c0,2.48,2.019,4.5,4.5,4.5h75.582  c2.48,0,4.5-2.02,4.5-4.5V71.986C92.291,69.506,90.271,67.486,87.791,67.486z M39.814,28.25H39c-1.103,0-2-0.897-2-2s0.897-2,2-2  h2.551c0.606,0,1.153-0.365,1.386-0.926c0.233-0.561,0.104-1.206-0.325-1.635l-1.803-1.803c-0.378-0.377-0.586-0.879-0.586-1.414  c0-0.535,0.208-1.036,0.586-1.414c0.779-0.779,2.049-0.779,2.828,0l1.803,1.803c0.43,0.43,1.076,0.558,1.635,0.325  C47.635,18.955,48,18.407,48,17.801V15.25c0-1.103,0.897-2,2-2c1.104,0,2,0.897,2,2v2.551c0,0.606,0.365,1.154,0.926,1.386  s1.205,0.104,1.635-0.325l1.803-1.803c0.779-0.778,2.049-0.781,2.828,0c0.379,0.377,0.586,0.879,0.586,1.414  c0,0.535-0.207,1.036-0.586,1.414l-1.803,1.803c-0.429,0.429-0.558,1.074-0.324,1.635c0.232,0.561,0.778,0.926,1.386,0.926H61  c1.104,0,2,0.897,2,2s-0.896,2-2,2h-0.624c-0.062,0-0.119,0.011-0.179,0.018C56.953,27.35,53.535,26.848,50,26.848  c-3.517,0-6.918,0.497-10.147,1.407C39.84,28.253,39.827,28.25,39.814,28.25z M15.48,64.398c0-19.051,15.485-34.552,34.52-34.552  s34.52,15.5,34.52,34.552v3.088H15.48V64.398z M33.897,70.486V86.75H22.295V70.486H33.897z M36.897,70.486H48.5V86.75H36.897V70.486  z M51.5,70.486h11.604V86.75H51.5V70.486z M66.104,70.486h11.603V86.75H66.104V70.486z M10.709,85.25V71.986  c0-0.826,0.673-1.5,1.5-1.5h7.086V86.75h-7.086C11.382,86.75,10.709,86.077,10.709,85.25z M89.291,85.25c0,0.827-0.673,1.5-1.5,1.5  h-7.086V70.486h7.086c0.827,0,1.5,0.674,1.5,1.5V85.25z"/><text x="0" y="115" fill="#000000" font-size="5px" font-weight="bold" font-family="'Helvetica Neue', Helvetica, Arial-Unicode, Arial, Sans-serif">Created by Lisa Staudinger</text><text x="0" y="120" fill="#000000" font-size="5px" font-weight="bold" font-family="'Helvetica Neue', Helvetica, Arial-Unicode, Arial, Sans-serif">from the Noun Project</text></svg>