<svg xmlns="http://www.w3.org/2000/svg" xmlns:xlink="http://www.w3.org/1999/xlink" version="1.1" x="0px" y="0px" viewBox="0 0 100 125" enable-background="new 0 0 100 100" xml:space="preserve"><g display="none"><rect x="5" y="5" display="inline" fill="#000000" stroke="#000000" stroke-width="0.5" stroke-miterlimit="10" width="90" height="90"/></g><g><path d="M62.282,61.404c-0.791-3.19-1.948-3.077-1.948-3.077s-8.299,0.056-8.892,0.056c-0.305,0-0.458,0.134-0.536,0.265L50.948,12   h0.142L51,11.678c-0.006-0.019-0.512-1.854-0.279-3.175c0-0.001,0.05-0.086,0.145-0.076c0.357,0.137,3.958,1.428,4.095,1.477   c0.021,0.01,0.137,0.057,0.28,0.057c0.312,0,0.533-0.211,0.593-0.565c0.079-0.48,0.062-1.258,0.057-1.419   c0.024-0.158-0.005-0.42-0.252-0.566l-0.087-0.058c-2.042-1.398-4.147-2.168-5.929-2.168c-2.743,0-5.282,1.56-6.117,2.072   l-0.186,0.112c-0.251,0.152-0.302,0.338-0.302,0.588l0.003,1.308c0.035,0.239,0.205,0.644,0.618,0.644   c0.083,0,0.169-0.018,0.258-0.054l0.061-0.025c3.213-1.305,3.873-1.407,4-1.407c0.193,0.011,0.206,0.034,0.235,0.14   c0.068,0.257,0.149,1.749-0.239,2.813c-0.016,0.028-0.047,0.095-0.06,0.176l-0.021,0.005l0.045,47.269   c-0.196-0.428-0.68-0.47-0.68-0.47l-4.63-0.142l-3.549,0.106c-0.932,0.126-1.152,0.11-1.376,0.317   c-0.551,0.508-1.017,1.461-1.439,3.811c-0.222,1.231-2.104,25.375-2.301,28.593c-0.197,3.218,2.484,2.653,2.484,2.653   c2.794-0.395,6.52,0.649,7.339,0.8c0.818,0.151,2.285,0,2.285,0c3.134-0.696,7.058-0.208,7.312-0.235   c0.254-0.028,1.012,0.543,2.709,0c3.698-1.412,6.605-1.044,7.339-0.988c0.735,0.057,2.174-0.733,2.062-2.032   C65.415,88.36,63.072,64.593,62.282,61.404z"/></g><text x="0" y="115" fill="#000000" font-size="5px" font-weight="bold" font-family="'Helvetica Neue', Helvetica, Arial-Unicode, Arial, Sans-serif">Created by Louis Dawson</text><text x="0" y="120" fill="#000000" font-size="5px" font-weight="bold" font-family="'Helvetica Neue', Helvetica, Arial-Unicode, Arial, Sans-serif">from the Noun Project</text></svg>