<svg xmlns="http://www.w3.org/2000/svg" xmlns:xlink="http://www.w3.org/1999/xlink" version="1.1" x="0px" y="0px" viewBox="0 0 100 125" enable-background="new 0 0 100 100" xml:space="preserve"><g><g><path d="M48.415,54h-0.313c-3.764,0-10.091-4.854-19.498-5.881c-9.407-1.025-24.8-1.72-24.8-1.72l0.769,5.404    c0,0,1.496-0.27,2.052,0.673c0,0,2.224,7.966,5.474,12.927c3.249,4.959,17.701,8.209,25.569,3.078C45.536,63.35,42.7,58,48.258,58    h3.045c5.559,0,2.722,5.309,10.59,10.441c7.868,5.131,22.319,2.305,25.569-2.654s5.474-13.239,5.474-13.239    c0.555-0.941,2.052-0.95,2.052-0.95l0.77-5.782c0,0-15.394,1.306-24.8,2.334C61.55,49.176,55.222,54,51.459,54h-0.313H48.415z"/><path d="M72.536,74.164c-3.358,0-8.214-0.557-12.282-3.21c-4.585-2.99-6.149-6.171-7.186-8.274C52.242,61,52.242,61,51.303,61    h-3.045c-0.934,0-0.934,0-1.761,1.69c-1.036,2.114-2.601,5.31-7.19,8.303c-3.092,2.017-7.161,3.082-11.768,3.082    c-6.632,0-14.927-2.414-17.95-7.027c-2.595-3.961-4.532-9.516-5.382-12.2c-0.5-0.035-0.974-0.219-1.431-0.524    c-0.707-0.474-1.053-1.255-1.173-2.098l-0.77-5.404c-0.126-0.884,0.148-1.778,0.749-2.439c0.6-0.661,1.449-1.021,2.356-0.98    c0.632,0.028,15.596,0.712,24.989,1.735c5.863,0.641,10.65,2.669,14.146,4.15C45.153,50.168,47.117,51,48.102,51h3.357    c0.987,0,2.953-0.828,5.035-1.705c3.493-1.473,8.278-3.488,14.138-4.127c9.334-1.02,24.717-2.327,24.871-2.34    c0.916-0.072,1.798,0.262,2.425,0.919c0.628,0.658,0.923,1.565,0.803,2.466l-0.77,5.782c-0.185,1.386-1.166,2.44-2.489,2.59    c-0.784,2.613-2.78,8.695-5.501,12.847C86.939,72.058,78.808,74.164,72.536,74.164z M55.523,56.149    c1.531,1.041,2.3,2.603,2.929,3.881c0.878,1.784,1.874,3.808,5.079,5.898c2.211,1.441,5.408,2.235,9.005,2.235    c5.851,0,11.144-2.079,12.417-4.021c2.952-4.505,5.064-12.294,5.085-12.372c0.07-0.261,0.176-0.512,0.312-0.744    c0.509-0.864,1.214-1.421,1.924-1.779l0.016-0.118c-5.152,0.452-14.55,1.299-21.007,2.004c-4.988,0.544-9.131,2.289-12.46,3.691    C57.632,55.326,56.545,55.784,55.523,56.149z M7.959,49.611c0.507,0.35,0.932,0.802,1.251,1.343    c0.132,0.224,0.234,0.465,0.305,0.715c0.021,0.075,2.143,7.587,5.094,12.091c1.337,2.041,6.977,4.315,12.931,4.315    c3.44,0,6.376-0.729,8.49-2.107c3.205-2.091,4.201-4.123,5.079-5.916c0.629-1.286,1.399-2.858,2.937-3.903    c-1.024-0.368-2.116-0.831-3.312-1.337c-3.328-1.41-7.47-3.166-12.455-3.71C22.097,50.428,13.19,49.893,7.959,49.611z"/></g><g><path d="M4.243,48.999c-0.771,0-1.543-0.296-2.13-0.888c-1.167-1.176-1.159-3.075,0.018-4.242l17.239-17.1    c0.562-0.558,1.321-0.87,2.112-0.87c0.003,0,0.007,0,0.01,0c0.609,0.002,6.03,0.114,8.836,3.383    c1.333,1.553,1.865,3.522,1.539,5.697c-0.245,1.638-1.774,2.764-3.412,2.521c-1.638-0.246-2.768-1.773-2.521-3.412    c0.091-0.608-0.064-0.79-0.158-0.899c-0.555-0.646-1.991-1.03-3.153-1.195L6.355,48.129C5.771,48.709,5.007,48.999,4.243,48.999z"/></g><g><path d="M96.196,48.999c-0.764,0-1.527-0.29-2.112-0.87L77.816,31.993c-1.235,0.174-2.632,0.585-3.155,1.199    c-0.086,0.102-0.246,0.29-0.155,0.896c0.246,1.639-0.884,3.166-2.521,3.412c-1.645,0.243-3.167-0.883-3.412-2.521    c-0.326-2.175,0.206-4.145,1.539-5.697c2.806-3.269,8.227-3.381,8.836-3.383c0.003,0,0.007,0,0.01,0    c0.791,0,1.551,0.312,2.112,0.87l17.239,17.1c1.177,1.167,1.185,3.066,0.018,4.242C97.74,48.703,96.968,48.999,96.196,48.999z"/></g></g><text x="0" y="115" fill="#000000" font-size="5px" font-weight="bold" font-family="'Helvetica Neue', Helvetica, Arial-Unicode, Arial, Sans-serif">Created by factor[e] design initiative</text><text x="0" y="120" fill="#000000" font-size="5px" font-weight="bold" font-family="'Helvetica Neue', Helvetica, Arial-Unicode, Arial, Sans-serif">from the Noun Project</text></svg>