<svg xmlns="http://www.w3.org/2000/svg" xmlns:xlink="http://www.w3.org/1999/xlink" version="1.1" x="0px" y="0px" viewBox="0 0 100 125" enable-background="new 0 0 100 100" xml:space="preserve"><g><rect x="-192" width="185" height="99"/><rect y="-36" width="100" height="30"/><text transform="matrix(1 0 0 1 66 -19.5)" fill="#000000" font-family="'Helvetica'" font-size="2.4">http://thenounproject.com</text><text transform="matrix(1 0 0 1 7.166 -24.5)"><tspan x="0" y="0" fill="#000000" font-family="'Helvetica-Bold'" font-size="6.1578">The Noun Project</tspan><tspan x="1.12" y="4.8" fill="#000000" font-family="'Helvetica-Bold'" font-size="4">Icon Template</tspan></text><text transform="matrix(1 0 0 1 -178.5 10.5)" fill="#000000" font-family="'Helvetica-Bold'" font-size="6.1578">Reminders</text><line fill="#000000" stroke="#FFFFFF" stroke-miterlimit="10" x1="8" y1="-14.5" x2="18" y2="-14.5"/><line fill="#000000" stroke="#FFFFFF" stroke-miterlimit="10" x1="-179" y1="16.5" x2="-162" y2="16.5"/><g><g><g><rect x="-170.802" y="31.318" fill="#000000" width="8.721" height="8.642"/><path fill="#000000" d="M-164.455,42.312h4.747v-4.703h-4.747V42.312z M-159.266,42.749h-5.63V37.17h5.63V42.749      L-159.266,42.749z M-166.221,44.062h8.279v-8.203h-8.279V44.062L-166.221,44.062z M-157.5,44.5h-9.163v-9.079h9.163V44.5      L-157.5,44.5z"/><polygon fill="#000000" points="-166.149,44.133 -166.292,43.991 -158.013,35.787 -157.871,35.929     "/></g></g></g><rect x="-179" y="58" fill="none" width="35" height="32.5"/><text transform="matrix(1 0 0 1 -179 60.1572)"><tspan x="0" y="0" fill="#000000" font-family="'Helvetica-Bold'" font-size="3">Strokes</tspan><tspan x="0" y="5" fill="#000000" font-family="'Helvetica'" font-size="2.4">Try to keep strokes at 4px</tspan><tspan x="0" y="10" fill="#000000" font-family="'Helvetica'" font-size="2.4">Minimum stroke weight is 2px</tspan><tspan x="0" y="14.5" fill="#000000" font-family="'Helvetica'" font-size="2.4">For thicker strokes use even </tspan><tspan x="0" y="17.5" fill="#000000" font-family="'Helvetica'" font-size="2.4">numbers: 6px, 8px etc.</tspan><tspan x="0" y="22" fill="#000000" font-family="'Helvetica-Bold'" font-size="2.4">Remember to expand strokes </tspan><tspan x="0" y="25" fill="#000000" font-family="'Helvetica-Bold'" font-size="2.4">before saving as an SVG </tspan></text><rect x="-136.5" y="58" fill="none" width="35" height="32.5"/><text transform="matrix(1 0 0 1 -136.5 60.1572)"><tspan x="0" y="0" fill="#000000" font-family="'Helvetica-Bold'" font-size="3">Size</tspan><tspan x="0" y="5" fill="#000000" font-family="'Helvetica'" font-size="2.4">Cannot be wider or taller than </tspan><tspan x="0" y="8.5" fill="#000000" font-family="'Helvetica'" font-size="2.4">100px (artboard size)</tspan><tspan x="0" y="13.5" fill="#000000" font-family="'Helvetica'" font-size="2.4">Scale your icon to fill as much of </tspan><tspan x="0" y="16.5" fill="#000000" font-family="'Helvetica'" font-size="2.4">the artboard as possible</tspan></text><rect x="-94" y="58" fill="none" width="35" height="32.5"/><text transform="matrix(1 0 0 1 -94 60.1572)"><tspan x="0" y="0" fill="#000000" font-family="'Helvetica-Bold'" font-size="3">Ungroup</tspan><tspan x="0" y="5" fill="#000000" font-family="'Helvetica'" font-size="2.4">If your design has more than one </tspan><tspan x="0" y="8" fill="#000000" font-family="'Helvetica'" font-size="2.4">shape, make sure to ungroup</tspan></text><rect x="-50" y="58" fill="none" width="35" height="32.5"/><text transform="matrix(1 0 0 1 -50 60.1572)"><tspan x="0" y="0" fill="#000000" font-family="'Helvetica-Bold'" font-size="3">Save as</tspan><tspan x="0" y="5" fill="#000000" font-family="'Helvetica'" font-size="2.4">Save as .SVG and make sure </tspan><tspan x="0" y="8" fill="#000000" font-family="'Helvetica'" font-size="2.4">“Use Artboards” is checked</tspan></text><text transform="matrix(1.0074 0 0 1 -125.542 30.5933)" fill="#000000" font-family="'Helvetica'" font-size="2.5731">100px</text><text transform="matrix(1.0074 0 0 1 -41 39)" fill="#000000" font-family="'Helvetica-Bold'" font-size="5.1462">.SVG</text><rect x="-126.514" y="34.815" fill="#000000" width="10.261" height="10.185"/><rect x="-126.477" y="31.766" fill="#000000" width="0.522" height="2.337"/><rect x="-116.812" y="31.766" fill="#000000" width="0.523" height="2.337"/><rect x="-127" y="32.337" fill="#000000" width="11.233" height="0.572"/><g><rect x="-83.805" y="33.844" fill="#000000" width="10.305" height="10.156"/><rect x="-76.809" y="28.707" fill="#000000" width="3.308" height="3.261"/></g><rect x="-178.5" y="22.5" fill="#000000" stroke="#FFFFFF" stroke-miterlimit="10" width="30" height="30"/><rect x="-136.5" y="22.5" fill="#000000" stroke="#FFFFFF" stroke-miterlimit="10" width="30" height="30"/><rect x="-93.5" y="22.5" fill="#000000" stroke="#FFFFFF" stroke-miterlimit="10" width="30" height="30"/><rect x="-49.5" y="22.5" fill="#000000" stroke="#FFFFFF" stroke-miterlimit="10" width="30" height="30"/></g><g><path d="M52.479,6.458V4.355c0-1.417-1.151-2.565-2.571-2.565c-1.417,0-2.566,1.148-2.566,2.565v2.103   C21.182,7.797,0.381,29.431,0.381,55.921c0,0.252,0.164,0.484,0.402,0.57c0.24,0.082,0.502,0.009,0.666-0.185   C1.453,56.305,3.167,54.248,6,52.18c2.835-2.079,6.757-4.125,11.096-4.119c4.336-0.006,8.364,2.044,11.302,4.123   c2.938,2.072,4.748,4.137,4.748,4.137c0.126,0.138,0.306,0.213,0.488,0.201c0.182-0.008,0.351-0.097,0.459-0.248   c0,0,1.481-2.04,4.202-4.104c2.25-1.702,5.321-3.367,9.046-3.909v34.566c0.015,0.087-0.057,0.889-0.313,1.323   c-0.321,0.409-0.245,0.622-1.548,0.712c-1.377-0.062-1.285-0.291-1.363-0.325c-0.083-0.081-0.22-0.61-0.208-1.266   c0-0.281,0.019-0.559,0.021-0.923c0-1.419-1.152-2.571-2.57-2.571c-1.416,0-2.568,1.152-2.568,2.571   c0,0.111-0.017,0.474-0.017,0.923c0.017,0.989,0.045,2.542,1.083,4.129c1.042,1.633,3.207,2.652,5.623,2.599   c0.066,0,0.138,0,0.205,0c2.859,0,5.063-1.727,5.872-3.418c0.896-1.71,0.907-3.211,0.922-3.754c0-0.055,0-0.081,0-0.081V48.29   c3.635,0.573,6.638,2.206,8.847,3.879c2.722,2.064,4.194,4.111,4.206,4.104c0.118,0.168,0.311,0.26,0.52,0.248   c0.203-0.012,0.388-0.122,0.491-0.298c0,0,0.279-0.48,0.894-1.248c1.843-2.305,6.51-6.915,14.49-6.915   c5.323,0,9.425,2.05,12.209,4.111c2.783,2.063,4.193,4.102,4.2,4.094c0.119,0.166,0.307,0.259,0.5,0.259   c0.059,0,0.121-0.008,0.18-0.027c0.254-0.077,0.424-0.313,0.424-0.576C99.436,29.431,78.636,7.797,52.479,6.458z M96.67,51.312   c-0.056,0.009-0.121,0.014-0.176,0.014c-0.545,0-1.018-0.393-1.103-0.945C94.775,46.58,93.805,37.847,84.34,26.54   c-11.987-14.28-27.051-16.043-32.145-16.219c2.226,3.006,6.521,9.486,9.055,17.794c3.566,11.756,5.662,23.964,5.668,23.993   c0.106,0.608-0.307,1.19-0.914,1.292c-0.607,0.104-1.188-0.303-1.291-0.918c-0.01-0.019-2.085-12.136-5.605-23.717   c-1.67-5.51-4.189-10.236-6.29-13.569c-1.217-1.933-2.283-3.387-2.964-4.268c-0.8,0.899-2.098,2.432-3.569,4.467   c-2.458,3.397-5.364,8.168-7.188,13.604c-2.138,6.359-3.286,12.236-3.894,16.511c-0.609,4.276-0.68,6.914-0.68,6.92l0,0   c-0.021,0.607-0.516,1.09-1.12,1.09c-0.006,0-0.021,0-0.03,0c-0.616-0.02-1.105-0.54-1.086-1.151   c0.005-0.07,0.305-11.033,4.686-24.083c2.78-8.233,7.786-14.831,10.42-17.93c-5.652,0.311-19.97,2.495-31.455,16.185   C6.466,37.847,5.267,46.76,4.658,50.534c-0.089,0.548-0.563,0.944-1.105,0.944c-0.061,0-0.116-0.005-0.177-0.016   c-0.606-0.099-1.022-0.671-0.925-1.279C3.048,46.362,4.418,36.747,14.223,25.1C27.665,9.102,44.785,8.07,48.994,8.07   c0.622,0,0.967,0.026,0.991,0.026V8.1c0.056,0.001,0.098,0.024,0.15,0.036C50.187,8.124,50.231,8.1,50.286,8.1   c0.023-0.004,0.372-0.03,0.995-0.03c4.204,0,21.324,1.032,34.771,17.03C95.857,36.747,97,46.236,97.597,50.035   C97.694,50.643,97.275,51.214,96.67,51.312z"/></g><text x="0" y="115" fill="#000000" font-size="5px" font-weight="bold" font-family="'Helvetica Neue', Helvetica, Arial-Unicode, Arial, Sans-serif">Created by iconoci</text><text x="0" y="120" fill="#000000" font-size="5px" font-weight="bold" font-family="'Helvetica Neue', Helvetica, Arial-Unicode, Arial, Sans-serif">from the Noun Project</text></svg>